<svg width="18" height="16" viewBox="0 0 18 16" fill="none" xmlns="http://www.w3.org/2000/svg">
<g id="Group 3">
<g id="Meniu">
<path id="Vector" fill-rule="evenodd" clip-rule="evenodd" d="M0 5.75C0 5.45163 0.118526 5.16548 0.329505 4.9545C0.540483 4.74353 0.826631 4.625 1.125 4.625H12.7215C13.0199 4.625 13.306 4.74353 13.517 4.9545C13.728 5.16548 13.8465 5.45163 13.8465 5.75C13.8465 6.04837 13.728 6.33452 13.517 6.5455C13.306 6.75647 13.0199 6.875 12.7215 6.875H1.125C0.826631 6.875 0.540483 6.75647 0.329505 6.5455C0.118526 6.33452 0 6.04837 0 5.75ZM0 1.25C0 0.951631 0.118526 0.665483 0.329505 0.454505C0.540483 0.243526 0.826631 0.125 1.125 0.125H16.875C17.1734 0.125 17.4595 0.243526 17.6705 0.454505C17.8815 0.665483 18 0.951631 18 1.25C18 1.54837 17.8815 1.83452 17.6705 2.04549C17.4595 2.25647 17.1734 2.375 16.875 2.375H1.125C0.826631 2.375 0.540483 2.25647 0.329505 2.04549C0.118526 1.83452 0 1.54837 0 1.25ZM0 10.25C0 9.95163 0.118526 9.66548 0.329505 9.4545C0.540483 9.24353 0.826631 9.125 1.125 9.125H16.875C17.1734 9.125 17.4595 9.24353 17.6705 9.4545C17.8815 9.66548 18 9.95163 18 10.25C18 10.5484 17.8815 10.8345 17.6705 11.0455C17.4595 11.2565 17.1734 11.375 16.875 11.375H1.125C0.826631 11.375 0.540483 11.2565 0.329505 11.0455C0.118526 10.8345 0 10.5484 0 10.25ZM0 14.75C0 14.4516 0.118526 14.1655 0.329505 13.9545C0.540483 13.7435 0.826631 13.625 1.125 13.625H12.7215C13.0199 13.625 13.306 13.7435 13.517 13.9545C13.728 14.1655 13.8465 14.4516 13.8465 14.75C13.8465 15.0484 13.728 15.3345 13.517 15.5455C13.306 15.7565 13.0199 15.875 12.7215 15.875H1.125C0.826631 15.875 0.540483 15.7565 0.329505 15.5455C0.118526 15.3345 0 15.0484 0 14.75Z" fill="#333333"/>
</g>
</g>
</svg>
