<svg width="22" height="22" viewBox="0 0 22 22" fill="none" xmlns="http://www.w3.org/2000/svg">
<g id="mdi:heart-outline">
<path id="Vector" d="M11.3414 16.923L11.2535 17.0109L11.1568 16.923C6.98071 13.1338 4.22013 10.6282 4.22013 8.08737C4.22013 6.32904 5.53888 5.01029 7.29721 5.01029C8.65113 5.01029 9.96988 5.88945 10.4358 7.08512H12.0711C12.537 5.88945 13.8558 5.01029 15.2097 5.01029C16.968 5.01029 18.2868 6.32904 18.2868 8.08737C18.2868 10.6282 15.5262 13.1338 11.3414 16.923ZM15.2097 3.25195C13.68 3.25195 12.2118 3.96408 11.2535 5.08062C10.2952 3.96408 8.82696 3.25195 7.29721 3.25195C4.58938 3.25195 2.46179 5.37074 2.46179 8.08737C2.46179 11.4018 5.45096 14.1185 9.97867 18.2242L11.2535 19.3847L12.5283 18.2242C17.056 14.1185 20.0451 11.4018 20.0451 8.08737C20.0451 5.37074 17.9175 3.25195 15.2097 3.25195Z" fill="black"/>
<path id="Vector_2" d="M11.1519 19.3051L9.8771 18.1446C5.3494 14.0389 2.36023 11.3222 2.36023 8.00778C2.36023 5.29116 4.48781 3.17236 7.19565 3.17236C8.7254 3.17236 10.1936 3.88449 11.1519 5.00103C12.1102 3.88449 13.5784 3.17236 15.1081 3.17236C17.816 3.17236 19.9436 5.29116 19.9436 8.00778C19.9436 11.3222 16.9544 14.0389 12.4267 18.1446L11.1519 19.3051Z" fill="black"/>
</g>
</svg>
