<svg xmlns="http://www.w3.org/2000/svg" width="36" height="37" viewBox="0 0 36 37" fill="none">
    <path d="M7.5 30.9297C6.675 30.9297 5.9685 30.6357 5.3805 30.0477C4.7925 29.4597 4.499 28.7537 4.5 27.9297V6.92969C4.5 6.10469 4.794 5.39819 5.382 4.81019C5.97 4.22219 6.676 3.92869 7.5 3.92969H28.5C29.325 3.92969 30.0315 4.22369 30.6195 4.81169C31.2075 5.39969 31.501 6.10569 31.5 6.92969V15.4422C30.8 15.0922 30.0685 14.8357 29.3055 14.6727C28.5425 14.5097 27.774 14.4287 27 14.4297C26.275 14.4297 25.5875 14.4987 24.9375 14.6367C24.2875 14.7747 23.65 14.9682 23.025 15.2172C23.1 14.9672 23.1565 14.7172 23.1945 14.4672C23.2325 14.2172 23.251 13.9547 23.25 13.6797C23.25 12.2297 22.7375 10.9922 21.7125 9.96719C20.6875 8.94219 19.45 8.42969 18 8.42969C16.55 8.42969 15.3125 8.94219 14.2875 9.96719C13.2625 10.9922 12.75 12.2297 12.75 13.6797C12.75 15.1297 13.2625 16.3672 14.2875 17.3922C15.3125 18.4172 16.55 18.9297 18 18.9297H18.375C18.05 19.3797 17.769 19.8612 17.532 20.3742C17.295 20.8872 17.0885 21.4182 16.9125 21.9672C15.0625 22.0922 13.3435 22.5297 11.7555 23.2797C10.1675 24.0297 8.749 25.0047 7.5 26.2047V27.9297H16.95C17.125 28.4797 17.325 29.0047 17.55 29.5047C17.775 30.0047 18.05 30.4797 18.375 30.9297H7.5ZM25.5 32.4297L25.05 30.1797C24.75 30.0547 24.4685 29.9232 24.2055 29.7852C23.9425 29.6472 23.674 29.4787 23.4 29.2797L21.225 29.9547L19.725 27.4047L21.45 25.9047C21.4 25.5547 21.375 25.2297 21.375 24.9297C21.375 24.6297 21.4 24.3047 21.45 23.9547L19.725 22.4547L21.225 19.9047L23.4 20.5797C23.675 20.3797 23.944 20.2112 24.207 20.0742C24.47 19.9372 24.751 19.8057 25.05 19.6797L25.5 17.4297H28.5L28.95 19.6797C29.25 19.8047 29.5315 19.9422 29.7945 20.0922C30.0575 20.2422 30.326 20.4297 30.6 20.6547L32.775 19.9047L34.275 22.5297L32.55 24.0297C32.6 24.3297 32.625 24.6422 32.625 24.9672C32.625 25.2922 32.6 25.6047 32.55 25.9047L34.275 27.4047L32.775 29.9547L30.6 29.2797C30.325 29.4797 30.0565 29.6487 29.7945 29.7867C29.5325 29.9247 29.251 30.0557 28.95 30.1797L28.5 32.4297H25.5ZM27 27.9297C27.825 27.9297 28.5315 27.6357 29.1195 27.0477C29.7075 26.4597 30.001 25.7537 30 24.9297C30 24.1047 29.706 23.3982 29.118 22.8102C28.53 22.2222 27.824 21.9287 27 21.9297C26.175 21.9297 25.4685 22.2237 24.8805 22.8117C24.2925 23.3997 23.999 24.1057 24 24.9297C24 25.7547 24.294 26.4612 24.882 27.0492C25.47 27.6372 26.176 27.9307 27 27.9297Z" fill="#F36F56"/>
</svg>