<svg width="50" height="50" viewBox="0 0 50 50" fill="none" xmlns="http://www.w3.org/2000/svg">
<path d="M24.3187 15.0455C22.4937 15.0455 19.6687 12.9705 16.6937 13.0455C12.7687 13.0955 9.16872 15.3205 7.14372 18.8455C3.06872 25.9205 6.09372 36.3705 10.0687 42.1205C12.0187 44.9205 14.3187 48.0705 17.3687 47.9705C20.2937 47.8455 21.3937 46.0705 24.9437 46.0705C28.4687 46.0705 29.4687 47.9705 32.5687 47.8955C35.7187 47.8455 37.7187 45.0455 39.6437 42.2205C41.8687 38.9705 42.7937 35.8205 42.8437 35.6455C42.7687 35.6205 36.7187 33.2955 36.6437 26.2955C36.5937 20.4455 41.4187 17.6455 41.6437 17.5205C38.8937 13.4955 34.6687 13.0455 33.1937 12.9455C29.3437 12.6455 26.1187 15.0455 24.3187 15.0455ZM30.8187 9.14551C32.4437 7.19551 33.5187 4.47051 33.2187 1.77051C30.8937 1.87051 28.0937 3.32051 26.4187 5.27051C24.9187 6.99551 23.6187 9.77051 23.9687 12.4205C26.5437 12.6205 29.1937 11.0955 30.8187 9.14551Z" fill="#333333"/>
</svg>
