<svg width="35" height="34" viewBox="0 0 35 34" fill="none" xmlns="http://www.w3.org/2000/svg">
<rect x="0.5" width="34" height="34" rx="17" fill="#F36F56"/>
<path d="M20.7553 16.1561H18.344V13.7447C18.344 13.425 18.217 13.1183 17.9908 12.8922C17.7647 12.6661 17.4581 12.5391 17.1383 12.5391C16.8185 12.5391 16.5119 12.6661 16.2858 12.8922C16.0597 13.1183 15.9326 13.425 15.9326 13.7447L15.9754 16.1561H13.5213C13.2015 16.1561 12.8949 16.2831 12.6687 16.5092C12.4426 16.7353 12.3156 17.042 12.3156 17.3618C12.3156 17.6815 12.4426 17.9882 12.6687 18.2143C12.8949 18.4404 13.2015 18.5674 13.5213 18.5674L15.9754 18.5246L15.9326 20.9788C15.9326 21.2985 16.0597 21.6052 16.2858 21.8313C16.5119 22.0574 16.8185 22.1845 17.1383 22.1845C17.4581 22.1845 17.7647 22.0574 17.9908 21.8313C18.217 21.6052 18.344 21.2985 18.344 20.9788V18.5246L20.7553 18.5674C21.0751 18.5674 21.3818 18.4404 21.6079 18.2143C21.834 17.9882 21.961 17.6815 21.961 17.3618C21.961 17.042 21.834 16.7353 21.6079 16.5092C21.3818 16.2831 21.0751 16.1561 20.7553 16.1561Z" fill="white"/>
</svg>
