<svg xmlns="http://www.w3.org/2000/svg" width="20" height="20" viewBox="0 0 20 20" fill="none">
    <path d="M10 0C4.47715 0 0 4.47715 0 10C0 15.5228 4.47715 20 10 20C15.5228 20 20 15.5228 20 10C19.9936 4.47982 15.5202 0.00642897 10 0Z" fill="#F36F56" fill-opacity="0.15"/>
    <path d="M15.7741 6.83313L10.07 14.574C9.93392 14.7545 9.73107 14.8727 9.50698 14.9022C9.28289 14.9316 9.05636 14.8698 8.8783 14.7306L4.80496 11.474C4.44552 11.1863 4.38731 10.6617 4.67496 10.3023C4.96261 9.94285 5.48718 9.88465 5.84663 10.1723L9.2433 12.8898L14.4325 5.8473C14.6026 5.59195 14.8993 5.45078 15.2048 5.47983C15.5103 5.50887 15.7751 5.70344 15.8941 5.98627C16.013 6.26911 15.967 6.59445 15.7741 6.83313Z" fill="#F36F56"/>
</svg>