<svg xmlns="http://www.w3.org/2000/svg" width="23" height="23" viewBox="0 0 23 23" fill="none">
    <path d="M5.83621 14.3743C5.46309 13.531 5.27049 12.619 5.27079 11.6968C5.27079 8.14614 8.05954 5.27018 11.5 5.27018C14.9404 5.27018 17.7291 8.1471 17.7291 11.6968C17.7294 12.619 17.5368 13.531 17.1637 14.3743M11.5 1.91602V2.87435M21.0833 11.4993H20.125M2.87496 11.4993H1.91663M18.2754 4.72297L17.5978 5.40052M5.40208 5.40147L4.72454 4.72393M13.9121 18.5019C14.88 18.1885 15.2691 17.3021 15.3783 16.4108C15.4109 16.1444 15.1915 15.923 14.9231 15.923H8.12375C8.05822 15.922 7.99322 15.9349 7.93304 15.9608C7.87287 15.9868 7.81889 16.0252 7.77468 16.0736C7.73047 16.122 7.69703 16.1792 7.67659 16.2414C7.65615 16.3037 7.64916 16.3696 7.65608 16.4348C7.76342 17.3241 8.03367 17.9738 9.05908 18.5009M13.9121 18.5019L9.05908 18.5009M13.9121 18.5019C13.7961 20.3658 13.2575 21.1038 11.5067 21.0827C9.63408 21.1172 9.20283 20.2039 9.05908 18.5009" stroke="black" stroke-width="1.5625" stroke-linecap="round" stroke-linejoin="round"/>
</svg>