<svg xmlns="http://www.w3.org/2000/svg" width="41" height="39" viewBox="0 0 41 39" fill="none">
    <path d="M13.8638 4.09512C13.8638 3.77256 13.7321 3.46321 13.4977 3.23513C13.2632 3.00704 12.9453 2.87891 12.6138 2.87891C12.2823 2.87891 11.9643 3.00704 11.7299 3.23513C11.4955 3.46321 11.3638 3.77256 11.3638 4.09512V6.65728C8.96378 6.84377 7.39044 7.30107 6.23378 8.4281C5.07544 9.5535 4.60544 11.0859 4.41211 13.4194H37.4821C37.2888 11.0843 36.8188 9.5535 35.6604 8.4281C34.5038 7.30107 32.9288 6.84377 30.5304 6.65566V4.09512C30.5304 3.77256 30.3987 3.46321 30.1643 3.23513C29.9299 3.00704 29.612 2.87891 29.2804 2.87891C28.9489 2.87891 28.631 3.00704 28.3966 3.23513C28.1621 3.46321 28.0304 3.77256 28.0304 4.09512V6.54864C26.9221 6.52756 25.6788 6.52756 24.2804 6.52756H17.6138C16.2154 6.52756 14.9721 6.52756 13.8638 6.54864V4.09512Z" fill="#333333"/>
    <path fill-rule="evenodd" clip-rule="evenodd" d="M4.28125 19.5002C4.28125 18.1397 4.28125 16.9299 4.30292 15.8516H37.5929C37.6146 16.9299 37.6146 18.1397 37.6146 19.5002V22.7435C37.6146 28.8586 37.6146 31.917 35.6612 33.8159C33.7096 35.7164 30.5663 35.7164 24.2812 35.7164H17.6146C11.3296 35.7164 8.18625 35.7164 6.23458 33.8159C4.28125 31.917 4.28125 28.8586 4.28125 22.7435V19.5002ZM29.2813 22.7435C29.7233 22.7435 30.1472 22.5726 30.4598 22.2685C30.7723 21.9644 30.9479 21.5519 30.9479 21.1218C30.9479 20.6918 30.7723 20.2793 30.4598 19.9752C30.1472 19.6711 29.7233 19.5002 29.2813 19.5002C28.8392 19.5002 28.4153 19.6711 28.1027 19.9752C27.7902 20.2793 27.6146 20.6918 27.6146 21.1218C27.6146 21.5519 27.7902 21.9644 28.1027 22.2685C28.4153 22.5726 28.8392 22.7435 29.2813 22.7435ZM29.2813 29.2299C29.7233 29.2299 30.1472 29.0591 30.4598 28.755C30.7723 28.4509 30.9479 28.0384 30.9479 27.6083C30.9479 27.1782 30.7723 26.7658 30.4598 26.4617C30.1472 26.1575 29.7233 25.9867 29.2813 25.9867C28.8392 25.9867 28.4153 26.1575 28.1027 26.4617C27.7902 26.7658 27.6146 27.1782 27.6146 27.6083C27.6146 28.0384 27.7902 28.4509 28.1027 28.755C28.4153 29.0591 28.8392 29.2299 29.2813 29.2299ZM22.6146 21.1218C22.6146 21.5519 22.439 21.9644 22.1264 22.2685C21.8139 22.5726 21.3899 22.7435 20.9479 22.7435C20.5059 22.7435 20.082 22.5726 19.7694 22.2685C19.4568 21.9644 19.2813 21.5519 19.2813 21.1218C19.2813 20.6918 19.4568 20.2793 19.7694 19.9752C20.082 19.6711 20.5059 19.5002 20.9479 19.5002C21.3899 19.5002 21.8139 19.6711 22.1264 19.9752C22.439 20.2793 22.6146 20.6918 22.6146 21.1218ZM22.6146 27.6083C22.6146 28.0384 22.439 28.4509 22.1264 28.755C21.8139 29.0591 21.3899 29.2299 20.9479 29.2299C20.5059 29.2299 20.082 29.0591 19.7694 28.755C19.4568 28.4509 19.2813 28.0384 19.2813 27.6083C19.2813 27.1782 19.4568 26.7658 19.7694 26.4617C20.082 26.1575 20.5059 25.9867 20.9479 25.9867C21.3899 25.9867 21.8139 26.1575 22.1264 26.4617C22.439 26.7658 22.6146 27.1782 22.6146 27.6083ZM12.6146 22.7435C13.0566 22.7435 13.4805 22.5726 13.7931 22.2685C14.1057 21.9644 14.2812 21.5519 14.2812 21.1218C14.2812 20.6918 14.1057 20.2793 13.7931 19.9752C13.4805 19.6711 13.0566 19.5002 12.6146 19.5002C12.1726 19.5002 11.7486 19.6711 11.4361 19.9752C11.1235 20.2793 10.9479 20.6918 10.9479 21.1218C10.9479 21.5519 11.1235 21.9644 11.4361 22.2685C11.7486 22.5726 12.1726 22.7435 12.6146 22.7435ZM12.6146 29.2299C13.0566 29.2299 13.4805 29.0591 13.7931 28.755C14.1057 28.4509 14.2812 28.0384 14.2812 27.6083C14.2812 27.1782 14.1057 26.7658 13.7931 26.4617C13.4805 26.1575 13.0566 25.9867 12.6146 25.9867C12.1726 25.9867 11.7486 26.1575 11.4361 26.4617C11.1235 26.7658 10.9479 27.1782 10.9479 27.6083C10.9479 28.0384 11.1235 28.4509 11.4361 28.755C11.7486 29.0591 12.1726 29.2299 12.6146 29.2299Z" fill="#333333"/>
</svg>