<svg xmlns="http://www.w3.org/2000/svg" width="23" height="24" viewBox="0 0 23 24" fill="none">
    <path d="M18.2083 14.8743H16.2917V12.9577H18.2083M18.2083 18.7077H16.2917V16.791H18.2083M12.4583 7.20768H10.5417V5.29102H12.4583M12.4583 11.041H10.5417V9.12435H12.4583M12.4583 14.8743H10.5417V12.9577H12.4583M12.4583 18.7077H10.5417V16.791H12.4583M6.70833 11.041H4.79167V9.12435H6.70833M6.70833 14.8743H4.79167V12.9577H6.70833M6.70833 18.7077H4.79167V16.791H6.70833M14.375 11.041V5.29102L11.5 2.41602L8.625 5.29102V7.20768H2.875V20.6243H20.125V11.041H14.375Z" fill="#242424"/>
</svg>