<svg xmlns="http://www.w3.org/2000/svg" width="24" height="24" viewBox="0 0 24 24" fill="none">
    <path d="M12 3C7.02976 3 3.00001 7.02975 3.00001 12C3.00001 13.6237 3.42901 15.1447 4.17976 16.4587C4.22938 16.5455 4.26118 16.6412 4.27329 16.7404C4.28539 16.8396 4.27756 16.9401 4.25026 17.0363L3.17101 20.8305L6.96676 19.7505C7.06286 19.7232 7.16345 19.7154 7.26262 19.7275C7.36179 19.7396 7.45755 19.7714 7.54426 19.821C8.9012 20.596 10.4373 21.0025 12 21C16.971 21 21 16.9703 21 12C21 7.02975 16.971 3 12 3ZM1.50001 12C1.50001 6.201 6.20101 1.5 12 1.5C17.799 1.5 22.5 6.201 22.5 12C22.5 17.799 17.799 22.5 12 22.5C10.224 22.5 8.54851 22.0583 7.08001 21.2782L2.93401 22.4573C2.74132 22.5119 2.53754 22.5141 2.34372 22.4636C2.1499 22.4131 1.97307 22.3118 1.83149 22.1702C1.68991 22.0285 1.58871 21.8516 1.53835 21.6578C1.48798 21.4639 1.49028 21.2602 1.54501 21.0675L2.72401 16.9222C1.91816 15.4068 1.49779 13.7163 1.50001 12ZM7.50001 9.75C7.50001 9.55109 7.57903 9.36032 7.71968 9.21967C7.86033 9.07902 8.0511 9 8.25001 9H15.75C15.9489 9 16.1397 9.07902 16.2803 9.21967C16.421 9.36032 16.5 9.55109 16.5 9.75C16.5 9.94891 16.421 10.1397 16.2803 10.2803C16.1397 10.421 15.9489 10.5 15.75 10.5H8.25001C8.0511 10.5 7.86033 10.421 7.71968 10.2803C7.57903 10.1397 7.50001 9.94891 7.50001 9.75ZM8.25001 13.5C8.0511 13.5 7.86033 13.579 7.71968 13.7197C7.57903 13.8603 7.50001 14.0511 7.50001 14.25C7.50001 14.4489 7.57903 14.6397 7.71968 14.7803C7.86033 14.921 8.0511 15 8.25001 15H12.75C12.9489 15 13.1397 14.921 13.2803 14.7803C13.421 14.6397 13.5 14.4489 13.5 14.25C13.5 14.0511 13.421 13.8603 13.2803 13.7197C13.1397 13.579 12.9489 13.5 12.75 13.5H8.25001Z" fill="#9DB2CE"/>
</svg>