<svg xmlns="http://www.w3.org/2000/svg" width="61" height="60" viewBox="0 0 61 60" fill="none">
    <g clip-path="url(#clip0_1106_15123)">
        <path fill-rule="evenodd" clip-rule="evenodd" d="M24.4703 27.0582C24.3302 27.144 24.2084 27.2565 24.1118 27.3894C24.0152 27.5223 23.9458 27.6729 23.9075 27.8327C23.8692 27.9924 23.8628 28.1582 23.8885 28.3204C23.9143 28.4826 23.9718 28.6382 24.0578 28.7782C25.2065 30.6507 26.1828 32.5094 26.8328 34.1982C26.9518 34.5077 27.1889 34.7572 27.4919 34.8919C27.7948 35.0265 28.1389 35.0353 28.4484 34.9163C28.7579 34.7973 29.0074 34.5602 29.1421 34.2572C29.2767 33.9542 29.2855 33.6102 29.1665 33.3007C28.444 31.4207 27.384 29.4194 26.189 27.4707C26.0158 27.1881 25.7374 26.9859 25.4151 26.9085C25.0928 26.8312 24.7529 26.885 24.4703 27.0582ZM37.4878 25.8657C37.7552 26.0614 37.934 26.3552 37.9849 26.6827C38.0358 27.0101 37.9545 27.3444 37.759 27.6119C36.3128 29.5907 35.039 32.2369 34.1428 34.2569C34.0761 34.407 33.9806 34.5424 33.8616 34.6555C33.7426 34.7686 33.6025 34.8572 33.4493 34.9162C33.2961 34.9751 33.1327 35.0033 32.9686 34.9992C32.8045 34.995 32.6428 34.9586 32.4928 34.8919C32.3427 34.8253 32.2073 34.7297 32.0942 34.6108C31.9811 34.4918 31.8925 34.3517 31.8335 34.1984C31.7746 34.0452 31.7464 33.8819 31.7505 33.7178C31.7547 33.5537 31.7911 33.392 31.8578 33.2419C32.7628 31.2044 34.1253 28.3469 35.7415 26.1369C35.9372 25.8695 36.231 25.6907 36.5585 25.6398C36.886 25.589 37.2202 25.6702 37.4878 25.8657Z" fill="#333333"/>
        <path fill-rule="evenodd" clip-rule="evenodd" d="M34.55 15.0462C37.4775 11.6987 53.1313 7.5 53.1313 7.5C53.1313 7.5 50.47 24.2438 48.1288 26.9213C46.385 28.9163 40.8288 27.67 38.1063 26.9038C40.1413 23.7825 42.5 20.7338 44.5738 18.3138C44.7853 18.0616 44.8889 17.7361 44.862 17.4081C44.8351 17.08 44.6798 16.7758 44.43 16.5615C44.1801 16.3472 43.8558 16.2401 43.5275 16.2635C43.1991 16.2868 42.8933 16.4387 42.6763 16.6862C40.585 19.1263 38.1613 22.2487 36.0388 25.495C34.8463 23.275 32.235 17.6937 34.55 15.0462ZM14.25 37.5H8V52.5H14.25V49.9463C15.525 49.8937 17.4075 49.8262 18.0588 49.8525C20.2925 49.9437 21.9588 50.4762 23.6463 51.015C25.2188 51.5163 26.8075 52.0237 28.8863 52.1825C29.4088 52.2225 29.9175 52.2738 30.4113 52.3225C32.19 52.5025 33.7688 52.6625 35.0738 52.1825C36.7388 51.57 46.2563 46.9113 47.4463 45.685C48.6363 44.46 48.0413 41.15 44.3525 41.7625C42.5325 42.065 40.4238 42.935 38.51 43.7238C36.5463 44.5325 34.7888 45.2575 33.7638 45.195C31.7413 45.0725 26.3888 44.0925 26.3888 44.0925L32.535 44.1675C32.535 44.1675 33.4038 44.2125 34.5975 43.3563C35.7913 42.5 36.8575 40.0462 35.0725 40.0462C33.2875 40.0462 31.385 39.4338 31.385 39.4338L23.77 37.7175C23.77 37.7175 21.1525 37.2275 20.0825 37.7175C19.2 38.1213 15.5225 39.4387 14.25 39.8925V37.5ZM11.5975 12.0875C11.5975 12.0875 24.5163 15.5525 26.9313 18.3138C28.7975 20.4475 26.7863 24.8913 25.7738 26.8038C24.4467 24.7198 23.014 22.7051 21.4813 20.7675C21.3796 20.6386 21.2535 20.5311 21.1102 20.4509C20.967 20.3708 20.8093 20.3197 20.6463 20.3005C20.4833 20.2812 20.318 20.2943 20.1601 20.339C20.0021 20.3836 19.8545 20.4589 19.7256 20.5606C19.5968 20.6623 19.4892 20.7884 19.4091 20.9317C19.3289 21.0749 19.2778 21.2326 19.2586 21.3956C19.2394 21.5586 19.2525 21.7238 19.2971 21.8818C19.3417 22.0398 19.4171 22.1874 19.5188 22.3163C21.0085 24.1997 22.4003 26.1585 23.6888 28.185C21.3538 28.8175 17.1013 29.6888 15.7263 28.115C13.7938 25.905 11.5975 12.0862 11.5975 12.0862" fill="#333333"/>
    </g>
    <defs>
        <clipPath id="clip0_1106_15123">
            <rect width="60" height="60" fill="white" transform="translate(0.5)"/>
        </clipPath>
    </defs>
</svg>