<svg xmlns="http://www.w3.org/2000/svg" width="30" height="31" viewBox="0 0 30 31" fill="none">
    <path d="M26.25 2.70508H7.5C6.83696 2.70508 6.20107 2.96847 5.73223 3.43731C5.26339 3.90615 5 4.54204 5 5.20508V8.95508H2.5V11.4551H5V13.9551H2.5V16.4551H5V18.9551H2.5V21.4551H5V25.2051C5 25.8681 5.26339 26.504 5.73223 26.9728C6.20107 27.4417 6.83696 27.7051 7.5 27.7051H26.25C26.5815 27.7051 26.8995 27.5734 27.1339 27.339C27.3683 27.1045 27.5 26.7866 27.5 26.4551V3.95508C27.5 3.62356 27.3683 3.30562 27.1339 3.07119C26.8995 2.83677 26.5815 2.70508 26.25 2.70508ZM16.25 6.45383C18.31 6.45383 20 8.14258 20 10.2038C19.997 11.1976 19.601 12.1498 18.8984 12.8526C18.1959 13.5555 17.2438 13.9518 16.25 13.9551C14.1912 13.9551 12.5 12.2638 12.5 10.2038C12.5 8.14258 14.1912 6.45383 16.25 6.45383ZM23.75 22.7051H8.75V21.7676C8.75 18.9938 12.1313 16.1426 16.25 16.1426C20.3687 16.1426 23.75 18.9938 23.75 21.7676V22.7051Z" fill="#F36F56"/>
</svg>