<svg xmlns="http://www.w3.org/2000/svg" width="25" height="24" viewBox="0 0 25 24" fill="none">
    <path d="M12.4992 3.87354C10.8728 3.87299 9.27412 4.2956 7.86039 5.09986C6.44667 5.90412 5.2665 7.06234 4.43585 8.46072C3.60521 9.85911 3.15266 11.4495 3.12269 13.0757C3.09271 14.702 3.48633 16.308 4.26488 17.736L3.1555 21.6267C3.11646 21.7633 3.11542 21.908 3.15249 22.0451C3.18956 22.1823 3.26333 22.3067 3.36587 22.4051C3.4684 22.5035 3.59582 22.572 3.73441 22.6033C3.87299 22.6346 4.0175 22.6276 4.15238 22.5829L7.8055 21.3657C9.05059 22.0852 10.4445 22.5086 11.8794 22.6032C13.3143 22.6978 14.7518 22.4611 16.0806 21.9112C17.4093 21.3614 18.5938 20.5133 19.5424 19.4325C20.4909 18.3517 21.1781 17.0671 21.5508 15.6782C21.9235 14.2893 21.9717 12.8333 21.6916 11.4228C21.4116 10.0123 20.8108 8.68514 19.9358 7.54398C19.0608 6.40281 17.9349 5.47823 16.6454 4.84177C15.3559 4.2053 13.9373 3.87402 12.4992 3.87354ZM9.37425 11.686C9.37425 11.4788 9.45656 11.2801 9.60307 11.1336C9.74959 10.9871 9.9483 10.9048 10.1555 10.9048H14.843C15.0502 10.9048 15.2489 10.9871 15.3954 11.1336C15.5419 11.2801 15.6242 11.4788 15.6242 11.686C15.6242 11.8932 15.5419 12.092 15.3954 12.2385C15.2489 12.385 15.0502 12.4673 14.843 12.4673H10.1555C9.9483 12.4673 9.74959 12.385 9.60307 12.2385C9.45656 12.092 9.37425 11.8932 9.37425 11.686ZM10.1555 14.0298H13.2805C13.4877 14.0298 13.6864 14.1121 13.8329 14.2586C13.9794 14.4051 14.0617 14.6038 14.0617 14.811C14.0617 15.0182 13.9794 15.217 13.8329 15.3635C13.6864 15.51 13.4877 15.5923 13.2805 15.5923H10.1555C9.9483 15.5923 9.74959 15.51 9.60307 15.3635C9.45656 15.217 9.37425 15.0182 9.37425 14.811C9.37425 14.6038 9.45656 14.4051 9.60307 14.2586C9.74959 14.1121 9.9483 14.0298 10.1555 14.0298Z" fill="#F36F56"/>
</svg>