<svg xmlns="http://www.w3.org/2000/svg" width="18" height="19" viewBox="0 0 18 19" fill="none">
    <g filter="url(#filter0_d_1347_35822)">
        <path d="M13.3604 6.56223H11.8337V5.60806C11.8337 5.18703 11.4914 4.84473 11.0704 4.84473H7.2537C6.83267 4.84473 6.49036 5.18703 6.49036 5.60806V6.56223H4.9637C4.75259 6.56223 4.58203 6.73278 4.58203 6.94389V7.32556C4.58203 7.37804 4.62497 7.42098 4.67745 7.42098H5.39784L5.69244 13.6588C5.71153 14.0656 6.04787 14.3864 6.45458 14.3864H11.8695C12.2774 14.3864 12.6125 14.0667 12.6316 13.6588L12.9262 7.42098H13.6466C13.6991 7.42098 13.742 7.37804 13.742 7.32556V6.94389C13.742 6.73278 13.5715 6.56223 13.3604 6.56223ZM10.9749 6.56223H7.34911V5.70348H10.9749V6.56223Z" fill="white"/>
    </g>
    <defs>
        <filter id="filter0_d_1347_35822" x="0.491636" y="0.754331" width="17.3409" height="17.7228" filterUnits="userSpaceOnUse" color-interpolation-filters="sRGB">
            <feFlood flood-opacity="0" result="BackgroundImageFix"/>
            <feColorMatrix in="SourceAlpha" type="matrix" values="0 0 0 0 0 0 0 0 0 0 0 0 0 0 0 0 0 0 127 0" result="hardAlpha"/>
            <feOffset/>
            <feGaussianBlur stdDeviation="2.0452"/>
            <feComposite in2="hardAlpha" operator="out"/>
            <feColorMatrix type="matrix" values="0 0 0 0 0 0 0 0 0 0 0 0 0 0 0 0 0 0 0.15 0"/>
            <feBlend mode="normal" in2="BackgroundImageFix" result="effect1_dropShadow_1347_35822"/>
            <feBlend mode="normal" in="SourceGraphic" in2="effect1_dropShadow_1347_35822" result="shape"/>
        </filter>
    </defs>
</svg>