<svg width="31" height="31" viewBox="0 0 31 31" fill="none" xmlns="http://www.w3.org/2000/svg">
<circle opacity="0.5" cx="15.0312" cy="15.3633" r="15" fill="#EC8C6F"/>
<path d="M10.582 18.3008H12.2487C12.2487 19.2008 13.3904 19.9674 14.7487 19.9674C16.107 19.9674 17.2487 19.2008 17.2487 18.3008C17.2487 17.3841 16.382 17.0508 14.5487 16.6091C12.782 16.1674 10.582 15.6174 10.582 13.3008C10.582 11.8091 11.807 10.5424 13.4987 10.1174V8.30078H15.9987V10.1174C17.6904 10.5424 18.9154 11.8091 18.9154 13.3008H17.2487C17.2487 12.4008 16.107 11.6341 14.7487 11.6341C13.3904 11.6341 12.2487 12.4008 12.2487 13.3008C12.2487 14.2174 13.1154 14.5508 14.9487 14.9924C16.7154 15.4341 18.9154 15.9841 18.9154 18.3008C18.9154 19.7924 17.6904 21.0591 15.9987 21.4841V23.3008H13.4987V21.4841C11.807 21.0591 10.582 19.7924 10.582 18.3008Z" fill="black"/>
</svg>
