<svg width="35" height="34" viewBox="0 0 35 34" fill="none" xmlns="http://www.w3.org/2000/svg">
<rect x="0.5" width="34" height="34" rx="17" fill="#F36F56"/>
<path fill-rule="evenodd" clip-rule="evenodd" d="M23.3427 12.4163L22.6752 23.7638C22.6503 24.1883 22.4641 24.5872 22.1548 24.879C21.8454 25.1707 21.4362 25.3331 21.011 25.333H14.9877C14.5625 25.3331 14.1533 25.1707 13.8439 24.879C13.5346 24.5872 13.3484 24.1883 13.3235 23.7638L12.6577 12.4163H10.916V11.583C10.916 11.4725 10.9599 11.3665 11.0381 11.2884C11.1162 11.2102 11.2222 11.1663 11.3327 11.1663H24.666C24.7765 11.1663 24.8825 11.2102 24.9606 11.2884C25.0388 11.3665 25.0827 11.4725 25.0827 11.583V12.4163H23.3427ZM16.3327 9.08301H19.666C19.7765 9.08301 19.8825 9.12691 19.9606 9.20505C20.0388 9.28319 20.0827 9.38917 20.0827 9.49967V10.333H15.916V9.49967C15.916 9.38917 15.9599 9.28319 16.0381 9.20505C16.1162 9.12691 16.2222 9.08301 16.3327 9.08301ZM15.4993 14.4997L15.916 21.9997H17.166L16.8327 14.4997H15.4993ZM19.2493 14.4997L18.8327 21.9997H20.0827L20.4993 14.4997H19.2493Z" fill="white"/>
</svg>
