<svg xmlns="http://www.w3.org/2000/svg" width="35" height="35" viewBox="0 0 35 35" fill="none">
    <path d="M20.6638 19.9931L22.7054 16.4639C22.8367 16.2452 22.7783 15.9681 22.5888 15.8077L20.4304 14.116C20.4742 13.7952 20.5033 13.4598 20.5033 13.1243C20.5033 12.7889 20.4742 12.4535 20.4304 12.1181L22.5888 10.4264C22.7783 10.266 22.8367 9.98893 22.7054 9.77018L20.6638 6.24102C20.5325 6.02227 20.27 5.93477 20.0367 6.02227L17.4992 7.0431C16.9742 6.63477 16.4054 6.29935 15.7783 6.03685L15.3992 3.33893C15.3747 3.22099 15.3108 3.11487 15.2181 3.03801C15.1253 2.96116 15.0092 2.91814 14.8888 2.91602H10.8054C10.5575 2.91602 10.3388 3.1056 10.295 3.35352L9.91584 6.05143C9.30334 6.31393 8.72 6.64935 8.195 7.05768L5.6575 6.03685C5.42417 5.94935 5.16167 6.03685 5.03042 6.2556L2.98875 9.78477C2.8575 10.0035 2.91584 10.2806 3.10542 10.441L5.26375 12.1327C5.22 12.4535 5.19084 12.7889 5.19084 13.1243C5.19084 13.4598 5.22 13.7952 5.26375 14.1306L3.10542 15.8223C2.91584 15.9827 2.8575 16.2598 2.98875 16.4785L5.03042 20.0077C5.16167 20.2264 5.42417 20.3139 5.6575 20.2264L8.195 19.2056C8.72 19.6139 9.28875 19.9493 9.91584 20.2118L10.295 22.9098C10.3388 23.1431 10.5575 23.3327 10.8054 23.3327H14.8888C15.1367 23.3327 15.3554 23.1431 15.3992 22.8952L15.7783 20.1973C16.3908 19.9348 16.9742 19.5993 17.4992 19.191L20.0367 20.2118C20.27 20.2993 20.5325 20.2118 20.6638 19.9931ZM12.8471 16.041C11.2429 16.041 9.93042 14.7285 9.93042 13.1243C9.93042 11.5202 11.2429 10.2077 12.8471 10.2077C14.4513 10.2077 15.7638 11.5202 15.7638 13.1243C15.7638 14.7285 14.4513 16.041 12.8471 16.041ZM31.9658 27.2264L30.5658 26.1473C30.595 25.9431 30.6242 25.7243 30.6242 25.5056C30.6242 25.2868 30.6096 25.0681 30.5658 24.8639L31.9513 23.7848C32.0679 23.6827 32.1117 23.5077 32.0242 23.3619L30.7117 21.1014C30.6388 20.9556 30.4638 20.9118 30.3033 20.9556L28.6846 21.6118C28.3492 21.3493 27.9846 21.1306 27.5763 20.9702L27.3283 19.2493C27.3226 19.1714 27.288 19.0984 27.2314 19.0445C27.1748 18.9906 27.1002 18.9596 27.0221 18.9577H24.4117C24.2513 18.9577 24.1054 19.0743 24.0908 19.2348L23.8429 20.9556C23.4492 21.1306 23.07 21.3348 22.7346 21.5973L21.1158 20.941C21.0415 20.9131 20.9597 20.9124 20.8849 20.9391C20.8102 20.9658 20.7473 21.0181 20.7075 21.0868L19.395 23.3473C19.3221 23.4931 19.3367 23.6681 19.4679 23.7702L20.8533 24.8493C20.7932 25.275 20.7932 25.707 20.8533 26.1327L19.4679 27.2118C19.3513 27.3139 19.3075 27.4889 19.395 27.6348L20.7075 29.8952C20.7804 30.041 20.9554 30.0848 21.1158 30.041L22.7346 29.3848C23.07 29.6473 23.4346 29.866 23.8429 30.0264L24.0908 31.7473C24.12 31.9077 24.2513 32.0243 24.4117 32.0243H27.0221C27.1825 32.0243 27.3283 31.9077 27.3429 31.7473L27.5908 30.0264C27.9846 29.8514 28.3638 29.6473 28.6846 29.3848L30.3179 30.041C30.4638 30.0993 30.6388 30.041 30.7263 29.8952L32.0388 27.6348C32.1263 27.5035 32.0825 27.3285 31.9658 27.2264ZM25.7096 27.4598C25.1872 27.4596 24.6864 27.2519 24.3172 26.8824C23.948 26.5129 23.7406 26.0119 23.7408 25.4896C23.741 24.9672 23.9487 24.4664 24.3182 24.0971C24.6877 23.7279 25.1887 23.5206 25.711 23.5208C26.2334 23.521 26.7343 23.7287 27.1035 24.0982C27.4727 24.4677 27.68 24.9687 27.6798 25.491C27.6796 26.0134 27.4719 26.5142 27.1024 26.8834C26.7329 27.2526 26.2319 27.46 25.7096 27.4598Z" fill="#F36F56"/>
</svg>