<svg xmlns="http://www.w3.org/2000/svg" width="15" height="16" viewBox="0 0 15 16" fill="none">
    <path d="M-0.00195312 12.4827V15.016C-0.00195312 15.2494 0.18138 15.4327 0.414714 15.4327H2.94805C3.05638 15.4327 3.16471 15.391 3.23971 15.3077L12.3397 6.21603L9.21471 3.09103L0.123047 12.1827C0.0397136 12.266 -0.00195312 12.366 -0.00195312 12.4827ZM14.7564 3.79937C14.8336 3.72227 14.8949 3.6307 14.9367 3.52989C14.9786 3.42908 15.0001 3.32101 15.0001 3.21187C15.0001 3.10273 14.9786 2.99466 14.9367 2.89385C14.8949 2.79304 14.8336 2.70146 14.7564 2.62437L12.8064 0.674367C12.7293 0.597114 12.6377 0.535825 12.5369 0.494007C12.4361 0.452189 12.328 0.430664 12.2189 0.430664C12.1097 0.430664 12.0017 0.452189 11.9009 0.494007C11.8 0.535825 11.7085 0.597114 11.6314 0.674367L10.1064 2.19937L13.2314 5.32437L14.7564 3.79937Z" fill="black"/>
</svg>