<svg xmlns="http://www.w3.org/2000/svg" width="40" height="60" viewBox="0 0 40 60" fill="none">
    <path d="M45.5003 14.5211C44.337 14.5211 43.3411 14.1069 42.5128 13.2786C41.6845 12.4503 41.2703 11.4544 41.2703 10.2911C41.2703 9.12777 41.6845 8.1311 42.5128 7.3011C43.3411 6.4711 44.337 6.05693 45.5003 6.0586C46.6636 6.06027 47.6595 6.47443 48.4878 7.3011C49.3161 8.12777 49.7303 9.12443 49.7303 10.2911C49.7303 11.4544 49.3161 12.4503 48.4878 13.2786C47.6595 14.1069 46.6636 14.5211 45.5003 14.5211ZM42.3253 53.7511V34.3261C42.3253 32.8711 41.9953 31.5603 41.3353 30.3936C40.6736 29.2269 39.692 28.3019 38.3903 27.6186L41.0103 20.7461C41.3436 19.8328 41.9261 19.0953 42.7578 18.5336C43.5895 17.9719 44.5036 17.6928 45.5003 17.6961C46.497 17.6994 47.4111 17.9719 48.2428 18.5136C49.0745 19.0553 49.6578 19.8003 49.9928 20.7486L56.7503 38.4661H50.1153V53.7511H42.3253ZM31.7453 28.5586C30.8353 28.5586 30.0636 28.2403 29.4303 27.6036C28.797 26.9669 28.4803 26.1936 28.4803 25.2836C28.4803 24.3736 28.7995 23.6028 29.4378 22.9711C30.0761 22.3394 30.8486 22.0228 31.7553 22.0211C32.662 22.0194 33.4336 22.3378 34.0703 22.9761C34.707 23.6144 35.0236 24.3878 35.0203 25.2961C35.017 26.2044 34.6986 26.9753 34.0653 27.6086C33.427 28.2419 32.6536 28.5586 31.7453 28.5586ZM14.2503 14.5211C13.087 14.5211 12.0911 14.1069 11.2628 13.2786C10.4345 12.4503 10.0203 11.4544 10.0203 10.2911C10.0203 9.12777 10.4345 8.1311 11.2628 7.3011C12.0911 6.4711 13.087 6.05693 14.2503 6.0586C15.4136 6.06027 16.4095 6.47443 17.2378 7.3011C18.0661 8.12777 18.4803 9.12443 18.4803 10.2911C18.4803 11.4544 18.0661 12.4503 17.2378 13.2786C16.4095 14.1069 15.4136 14.5211 14.2503 14.5211ZM9.82531 53.7511V37.3086H5.69531V22.5986C5.69531 21.4869 6.09115 20.5361 6.88281 19.7461C7.67448 18.9561 8.62448 18.5603 9.73281 18.5586H18.7728C19.8828 18.5586 20.8328 18.9544 21.6228 19.7461C22.4128 20.5378 22.8086 21.4878 22.8103 22.5961V37.3086H18.6728V53.7511H9.82531ZM28.6753 53.7511V45.0011H26.1753V34.3261C26.1753 33.4728 26.4736 32.7469 27.0703 32.1486C27.667 31.5503 28.3936 31.2511 29.2503 31.2511H34.2503C35.1053 31.2511 35.832 31.5503 36.4303 32.1486C37.0286 32.7469 37.3278 33.4736 37.3278 34.3286V45.0011H34.8278V53.7511H28.6753Z" fill="#333333"/>
</svg>