<svg xmlns="http://www.w3.org/2000/svg" width="21" height="20" viewBox="0 0 21 20" fill="none">
    <path d="M19.03 4.81896L13.27 0.788961C11.7 -0.311039 9.28998 -0.251039 7.77998 0.918961L2.76998 4.82896C1.76998 5.60896 0.97998 7.20896 0.97998 8.46896V15.369C0.97998 17.919 3.04998 19.999 5.59998 19.999H16.38C18.93 19.999 21 17.929 21 15.379V8.59896C21 7.24896 20.13 5.58896 19.03 4.81896ZM11.74 15.999C11.74 16.409 11.4 16.749 10.99 16.749C10.58 16.749 10.24 16.409 10.24 15.999V12.999C10.24 12.589 10.58 12.249 10.99 12.249C11.4 12.249 11.74 12.589 11.74 12.999V15.999Z" fill="#333333"/>
</svg>