<svg width="41" height="48" viewBox="0 0 41 48" fill="none" xmlns="http://www.w3.org/2000/svg">
<circle cx="24" cy="24" r="16" stroke="#EBEBEB" stroke-width="2"/>
<path d="M40 24C40 14.7792 33.2208 8 24 8" stroke="#F36F56" stroke-width="2" stroke-linecap="round"/>
<path d="M24.8307 19H23.1641V19.8333C23.1641 20.0543 23.2519 20.2663 23.4081 20.4226C23.5644 20.5789 23.7764 20.6667 23.9974 20.6667C24.2184 20.6667 24.4304 20.5789 24.5867 20.4226C24.7429 20.2663 24.8307 20.0543 24.8307 19.8333V19Z" fill="#F36F56"/>
<path fill-rule="evenodd" clip-rule="evenodd" d="M19 15.666V17.3327H19.8333V19.8327C19.8333 20.9378 20.2723 21.9976 21.0537 22.779C21.8351 23.5604 22.8949 23.9993 24 23.9993C22.8949 23.9993 21.8351 24.4383 21.0537 25.2197C20.2723 26.0011 19.8333 27.0609 19.8333 28.166V30.666H19V32.3327H29V30.666H28.1667V28.166C28.1667 27.0609 27.7277 26.0011 26.9463 25.2197C26.1649 24.4383 25.1051 23.9993 24 23.9993C24.5472 23.9993 25.089 23.8916 25.5945 23.6822C26.1 23.4728 26.5594 23.1659 26.9463 22.779C27.3332 22.392 27.6401 21.9327 27.8495 21.4272C28.0589 20.9217 28.1667 20.3799 28.1667 19.8327V17.3327H29V15.666H19ZM21.5 17.3327H26.5V19.8327C26.5 20.4957 26.2366 21.1316 25.7678 21.6004C25.2989 22.0693 24.663 22.3327 24 22.3327C23.337 22.3327 22.7011 22.0693 22.2322 21.6004C21.7634 21.1316 21.5 20.4957 21.5 19.8327V17.3327ZM21.5 28.166V30.666H26.5V28.166C26.5 27.503 26.2366 26.8671 25.7678 26.3982C25.2989 25.9294 24.663 25.666 24 25.666C23.337 25.666 22.7011 25.9294 22.2322 26.3982C21.7634 26.8671 21.5 27.503 21.5 28.166Z" fill="#F36F56"/>
</svg>
