<svg xmlns="http://www.w3.org/2000/svg" width="23" height="22" viewBox="0 0 23 22" fill="none">
    <g clip-path="url(#clip0_2241_16853)">
        <path opacity="0.5" d="M18.7472 6.41732C18.7986 6.13639 18.7852 5.8481 18.7078 5.57267C18.6304 5.29724 18.4909 5.04136 18.2991 4.82297C18.1073 4.60459 17.8679 4.429 17.5976 4.30854C17.3274 4.18807 17.0328 4.12565 16.7347 4.12565H6.26582C5.96765 4.12565 5.6731 4.18807 5.40283 4.30854C5.13257 4.429 4.89314 4.60459 4.70136 4.82297C4.50958 5.04136 4.37009 5.29724 4.2927 5.57267C4.2153 5.8481 4.20186 6.13639 4.25332 6.41732M16.7711 4.12565C16.7979 3.88732 16.8123 3.76907 16.8123 3.67098C16.8133 3.21787 16.6389 2.78044 16.3226 2.44308C16.0064 2.10571 15.5708 1.89232 15.0997 1.84407C14.9982 1.83398 14.8736 1.83398 14.6244 1.83398H8.37607C8.12691 1.83398 8.00136 1.83398 7.89978 1.84407C7.42876 1.89232 6.99311 2.10571 6.67687 2.44308C6.36063 2.78044 6.1862 3.21787 6.18724 3.67098C6.18724 3.76907 6.20066 3.88823 6.22845 4.12565" stroke="#9DB2CE" stroke-width="1.94"/>
        <path d="M14.375 16.5H8.625" stroke="#9DB2CE" stroke-width="1.94" stroke-linecap="round"/>
        <path d="M2.28433 12.6449C1.85596 9.74455 1.64225 8.2953 2.55075 7.35572C3.45925 6.41797 5.07691 6.41797 8.31033 6.41797H14.689C17.9224 6.41797 19.5401 6.41797 20.4486 7.35664C21.3561 8.2953 21.1424 9.74455 20.715 12.6449L20.3106 15.3949C19.9752 17.6682 19.8075 18.8058 18.9478 19.4869C18.0882 20.168 16.8203 20.168 14.2836 20.168H8.71571C6.17996 20.168 4.91112 20.168 4.0515 19.4869C3.19187 18.8058 3.02416 17.6691 2.68875 15.3949L2.28433 12.6449Z" stroke="#9DB2CE" stroke-width="1.94"/>
    </g>
    <defs>
        <clipPath id="clip0_2241_16853">
            <rect width="23" height="22" fill="white"/>
        </clipPath>
    </defs>
</svg>