<svg width="15" height="16" viewBox="0 0 15 16" fill="none" xmlns="http://www.w3.org/2000/svg">
<g id="si:lock-fill">
<path id="Vector" fill-rule="evenodd" clip-rule="evenodd" d="M4.375 4.875C4.375 3.14875 5.77375 1.75 7.5 1.75C9.22625 1.75 10.625 3.14875 10.625 4.875V6.75H10.875C11.425 6.75 11.875 7.2 11.875 7.75V12.125C11.875 12.95 11.2 13.625 10.375 13.625H4.625C3.8 13.625 3.125 12.95 3.125 12.125V7.75C3.125 7.2 3.575 6.75 4.125 6.75H4.375V4.875ZM9.375 4.875V6.75H5.625V4.875C5.625 3.83875 6.46375 3 7.5 3C8.53625 3 9.375 3.83875 9.375 4.875ZM7.5 8.15625C7.25146 8.15599 7.01025 8.24039 6.81608 8.39554C6.62192 8.55069 6.48639 8.76734 6.43181 9.00982C6.37723 9.25229 6.40686 9.50612 6.51582 9.7295C6.62478 9.95288 6.80657 10.1325 7.03125 10.2387V11.75C7.03125 11.8743 7.08064 11.9935 7.16854 12.0815C7.25645 12.1694 7.37568 12.2188 7.5 12.2188C7.62432 12.2188 7.74355 12.1694 7.83146 12.0815C7.91936 11.9935 7.96875 11.8743 7.96875 11.75V10.2387C8.19343 10.1325 8.37522 9.95288 8.48418 9.7295C8.59314 9.50612 8.62277 9.25229 8.56819 9.00982C8.51361 8.76734 8.37808 8.55069 8.18392 8.39554C7.98975 8.24039 7.74854 8.15599 7.5 8.15625Z" fill="white"/>
</g>
</svg>
