<svg xmlns="http://www.w3.org/2000/svg" width="25" height="25" viewBox="0 0 25 25" fill="none">
    <path fill-rule="evenodd" clip-rule="evenodd" d="M4.39408 4.2625C4.16699 4.70833 4.16699 5.29167 4.16699 6.45833V7.09792L22.9066 5.39375C22.8868 4.88542 22.8337 4.54583 22.6899 4.2625C22.4902 3.87051 22.1715 3.55182 21.7795 3.35208C21.3337 3.125 20.7503 3.125 19.5837 3.125H7.50033C6.33366 3.125 5.75033 3.125 5.30449 3.35208C4.91251 3.55182 4.59381 3.87051 4.39408 4.2625ZM22.917 7.48542L17.8493 7.94583L20.4597 21.8698C21.0764 21.8563 21.4628 21.8094 21.7795 21.6479C22.1715 21.4482 22.4902 21.1295 22.6899 20.7375C22.917 20.2917 22.917 19.7083 22.917 18.5417V7.48542ZM18.342 21.875L15.7649 8.13542L4.16699 9.18958V18.5417C4.16699 19.7083 4.16699 20.2917 4.39408 20.7375C4.59381 21.1295 4.91251 21.4482 5.30449 21.6479C5.75033 21.875 6.33366 21.875 7.50033 21.875H18.342ZM14.0628 15.6562C14.0628 17.9042 11.8337 19.4833 10.8618 20.0656C10.7275 20.1466 10.5738 20.1893 10.417 20.1893C10.2602 20.1893 10.1064 20.1466 9.9722 20.0656C9.00033 19.4833 6.77116 17.9042 6.77116 15.6552C6.77116 13.45 8.53783 11.9792 10.417 11.9792C12.3618 11.9792 14.0628 13.45 14.0628 15.6562Z" fill="#242424"/>
    <path d="M10.4167 16.6673C10.992 16.6673 11.4583 16.2009 11.4583 15.6257C11.4583 15.0504 10.992 14.584 10.4167 14.584C9.84137 14.584 9.375 15.0504 9.375 15.6257C9.375 16.2009 9.84137 16.6673 10.4167 16.6673Z" fill="#242424"/>
</svg>