<svg xmlns="http://www.w3.org/2000/svg" width="33" height="34" viewBox="0 0 33 34" fill="none">
    <path d="M26.125 16.7051L20.625 11.2051M26.125 16.7051L20.625 22.2051M26.125 16.7051H12.375M19.25 29.0801C17.6249 29.0801 16.0157 28.76 14.5143 28.1381C13.0129 27.5162 11.6487 26.6046 10.4996 25.4555C9.35043 24.3064 8.43889 22.9422 7.81699 21.4408C7.19509 19.9394 6.875 18.3302 6.875 16.7051C6.875 15.08 7.19509 13.4708 7.81699 11.9694C8.43889 10.468 9.35043 9.10376 10.4996 7.95463C11.6487 6.80551 13.0129 5.89397 14.5143 5.27207C16.0157 4.65017 17.6249 4.33008 19.25 4.33008" stroke="#F36F56" stroke-width="2" stroke-linecap="round" stroke-linejoin="round"/>
</svg>