<svg width="136" height="51" viewBox="0 0 136 51" fill="none" xmlns="http://www.w3.org/2000/svg">
<path d="M15.1908 40.3848V27.8254H10.8821V24.6168H23.5102V27.8254H19.1786V40.3848H15.1908ZM25.3417 40.3848V28.6963H28.8253L28.917 30.6902H29.1233C29.3372 30.1249 29.6046 29.6818 29.9254 29.361C30.2616 29.0401 30.6665 28.8185 31.1401 28.6963C31.6138 28.5741 32.1638 28.513 32.7902 28.513V31.882C31.8277 31.882 31.0714 32.0042 30.5213 32.2487C29.9713 32.4932 29.5816 32.9133 29.3525 33.5092C29.1233 34.0898 29.0087 34.9072 29.0087 35.9615V40.3848H25.3417ZM37.36 40.5681C36.6266 40.5681 36.0078 40.4535 35.5036 40.2243C34.9994 39.9952 34.6174 39.6208 34.3577 39.1013C34.1132 38.5818 33.991 37.9019 33.991 37.0616C33.991 36.1754 34.0903 35.4726 34.2889 34.9531C34.5028 34.4183 34.8771 34.0363 35.4119 33.8071C35.9467 33.578 36.703 33.4634 37.6808 33.4634C37.8184 33.4634 38.0093 33.471 38.2538 33.4863C38.5136 33.4863 38.8039 33.4939 39.1247 33.5092C39.4456 33.5092 39.7664 33.5168 40.0873 33.5321C40.4081 33.5321 40.6985 33.5398 40.9582 33.555V33.1196C40.9582 32.6765 40.92 32.3327 40.8436 32.0883C40.7825 31.8438 40.6526 31.6681 40.454 31.5611C40.2706 31.4389 39.988 31.3701 39.606 31.3549C39.224 31.3243 38.7198 31.309 38.0934 31.309C37.742 31.309 37.3523 31.3167 36.9245 31.3319C36.512 31.3472 36.0995 31.3701 35.6869 31.4007C35.2897 31.416 34.9535 31.4389 34.6785 31.4695V28.8797C35.305 28.7727 36.0078 28.6887 36.787 28.6276C37.5815 28.5512 38.4142 28.513 39.2851 28.513C40.263 28.513 41.0728 28.5741 41.7145 28.6963C42.3715 28.8185 42.8986 29.0095 43.2959 29.2693C43.6931 29.5137 43.9834 29.827 44.1668 30.2089C44.3654 30.5909 44.4953 31.0416 44.5564 31.5611C44.6175 32.0806 44.6481 32.6689 44.6481 33.3259V40.3848H41.1186L41.027 39.0097H40.8436C40.5533 39.468 40.2172 39.8118 39.8352 40.041C39.4532 40.2702 39.0483 40.4153 38.6205 40.4764C38.1927 40.5376 37.7725 40.5681 37.36 40.5681ZM39.1018 37.9554C39.3768 37.9554 39.6136 37.9401 39.8123 37.9096C40.0262 37.8637 40.2019 37.795 40.3394 37.7033C40.4922 37.5963 40.6144 37.4665 40.7061 37.3137C40.7825 37.1456 40.8436 36.9393 40.8894 36.6949C40.9353 36.4504 40.9582 36.1601 40.9582 35.824V35.3885H38.8268C38.4448 35.3885 38.1545 35.4191 37.9559 35.4802C37.7572 35.526 37.6197 35.6483 37.5433 35.8469C37.4822 36.0302 37.4517 36.3205 37.4517 36.7178C37.4517 37.0539 37.4899 37.3137 37.5663 37.497C37.6426 37.6804 37.7954 37.8026 38.0246 37.8637C38.2691 37.9248 38.6281 37.9554 39.1018 37.9554ZM49.6819 40.3848L46.1525 28.6963H49.9111L52.0884 37.1074H52.3176L54.4261 28.6963H58.1389L54.6323 40.3848H49.6819ZM65.107 40.5681C64.0069 40.5681 63.0978 40.4994 62.3797 40.3618C61.6616 40.2243 61.0886 40.0104 60.6608 39.7201C60.2483 39.4145 59.935 39.0249 59.7211 38.5513C59.5225 38.0776 59.3926 37.5123 59.3315 36.8553C59.2857 36.1983 59.2628 35.4344 59.2628 34.5635C59.2628 33.5092 59.3086 32.6001 59.4003 31.8362C59.5072 31.0722 59.7364 30.4458 60.0878 29.9568C60.4392 29.4679 60.9817 29.1088 61.715 28.8797C62.4637 28.6352 63.4721 28.513 64.7403 28.513C65.764 28.513 66.5967 28.5894 67.2384 28.7422C67.8801 28.8797 68.3843 29.1012 68.751 29.4068C69.133 29.6971 69.4004 30.0791 69.5532 30.5527C69.7213 31.0264 69.8282 31.5993 69.874 32.2716C69.9199 32.9286 69.9428 33.6926 69.9428 34.5635V35.4573H62.9068C62.9068 35.9768 62.9297 36.3969 62.9756 36.7178C63.0214 37.0234 63.1436 37.2526 63.3423 37.4054C63.5409 37.5581 63.8465 37.6651 64.259 37.7262C64.6715 37.7721 65.2445 37.795 65.9779 37.795C66.2682 37.795 66.612 37.7873 67.0092 37.7721C67.4065 37.7568 67.819 37.7339 68.2468 37.7033C68.6899 37.6727 69.1025 37.6422 69.4844 37.6116V40.1785C69.1483 40.2549 68.7358 40.3236 68.2468 40.3848C67.7732 40.4459 67.2613 40.4917 66.7113 40.5223C66.1612 40.5528 65.6265 40.5681 65.107 40.5681ZM66.4821 33.9217V33.555C66.4821 33.005 66.4515 32.5695 66.3904 32.2487C66.3446 31.9278 66.2529 31.691 66.1154 31.5382C65.9932 31.3701 65.8175 31.2632 65.5883 31.2174C65.3591 31.1715 65.0688 31.1486 64.7174 31.1486C64.3201 31.1486 63.9993 31.1792 63.7548 31.2403C63.5256 31.2861 63.3499 31.3931 63.2277 31.5611C63.1054 31.7292 63.0214 31.9737 62.9756 32.2945C62.9297 32.6154 62.9068 33.0356 62.9068 33.555H66.8717L66.4821 33.9217ZM72.4098 40.3848V23.3563H76.1226V40.3848H72.4098ZM84.9706 40.3848V24.6168H88.9584V30.8048H94.0692V24.6168H98.057V40.3848H94.0692V34.128H88.9584V40.3848H84.9706ZM106.557 40.5681C105.457 40.5681 104.548 40.4994 103.83 40.3618C103.112 40.2243 102.539 40.0104 102.111 39.7201C101.699 39.4145 101.385 39.0249 101.171 38.5513C100.973 38.0776 100.843 37.5123 100.782 36.8553C100.736 36.1983 100.713 35.4344 100.713 34.5635C100.713 33.5092 100.759 32.6001 100.851 31.8362C100.958 31.0722 101.187 30.4458 101.538 29.9568C101.89 29.4679 102.432 29.1088 103.165 28.8797C103.914 28.6352 104.922 28.513 106.191 28.513C107.214 28.513 108.047 28.5894 108.689 28.7422C109.33 28.8797 109.835 29.1012 110.201 29.4068C110.583 29.6971 110.851 30.0791 111.004 30.5527C111.172 31.0264 111.279 31.5993 111.324 32.2716C111.37 32.9286 111.393 33.6926 111.393 34.5635V35.4573H104.357C104.357 35.9768 104.38 36.3969 104.426 36.7178C104.472 37.0234 104.594 37.2526 104.793 37.4054C104.991 37.5581 105.297 37.6651 105.709 37.7262C106.122 37.7721 106.695 37.795 107.428 37.795C107.719 37.795 108.062 37.7873 108.46 37.7721C108.857 37.7568 109.269 37.7339 109.697 37.7033C110.14 37.6727 110.553 37.6422 110.935 37.6116V40.1785C110.599 40.2549 110.186 40.3236 109.697 40.3848C109.223 40.4459 108.712 40.4917 108.162 40.5223C107.612 40.5528 107.077 40.5681 106.557 40.5681ZM107.932 33.9217V33.555C107.932 33.005 107.902 32.5695 107.841 32.2487C107.795 31.9278 107.703 31.691 107.566 31.5382C107.443 31.3701 107.268 31.2632 107.039 31.2174C106.809 31.1715 106.519 31.1486 106.168 31.1486C105.77 31.1486 105.45 31.1792 105.205 31.2403C104.976 31.2861 104.8 31.3931 104.678 31.5611C104.556 31.7292 104.472 31.9737 104.426 32.2945C104.38 32.6154 104.357 33.0356 104.357 33.555H108.322L107.932 33.9217ZM113.86 40.3848V28.6963H117.344L117.435 30.6902H117.642C117.856 30.1249 118.123 29.6818 118.444 29.361C118.78 29.0401 119.185 28.8185 119.658 28.6963C120.132 28.5741 120.682 28.513 121.309 28.513V31.882C120.346 31.882 119.59 32.0042 119.04 32.2487C118.49 32.4932 118.1 32.9133 117.871 33.5092C117.642 34.0898 117.527 34.9072 117.527 35.9615V40.3848H113.86ZM128.282 40.5681C127.243 40.5681 126.38 40.507 125.692 40.3848C125.005 40.2625 124.462 40.0639 124.065 39.7889C123.668 39.5139 123.378 39.1472 123.194 38.6888C123.011 38.2304 122.889 37.6575 122.827 36.9699C122.782 36.2823 122.759 35.4649 122.759 34.5176C122.759 33.5703 122.782 32.7605 122.827 32.0883C122.889 31.4007 123.011 30.8277 123.194 30.3694C123.378 29.911 123.668 29.5443 124.065 29.2693C124.462 28.9943 125.005 28.8033 125.692 28.6963C126.38 28.5741 127.243 28.513 128.282 28.513C129.336 28.513 130.207 28.5741 130.895 28.6963C131.582 28.8033 132.125 28.9943 132.522 29.2693C132.919 29.5443 133.21 29.911 133.393 30.3694C133.576 30.8277 133.691 31.4007 133.737 32.0883C133.798 32.7605 133.828 33.5703 133.828 34.5176C133.828 35.4649 133.798 36.2823 133.737 36.9699C133.691 37.6575 133.576 38.2304 133.393 38.6888C133.21 39.1472 132.919 39.5139 132.522 39.7889C132.125 40.0639 131.582 40.2625 130.895 40.3848C130.207 40.507 129.336 40.5681 128.282 40.5681ZM128.282 37.7721C128.74 37.7721 129.1 37.7415 129.359 37.6804C129.619 37.6193 129.802 37.4818 129.909 37.2678C130.016 37.0539 130.077 36.7254 130.093 36.2823C130.123 35.8393 130.139 35.251 130.139 34.5176C130.139 33.7842 130.123 33.2036 130.093 32.7758C130.077 32.348 130.016 32.0271 129.909 31.8132C129.802 31.5993 129.619 31.4618 129.359 31.4007C129.1 31.3396 128.74 31.309 128.282 31.309C127.824 31.309 127.465 31.3396 127.205 31.4007C126.96 31.4618 126.785 31.5993 126.678 31.8132C126.571 32.0271 126.502 32.348 126.472 32.7758C126.456 33.2036 126.449 33.7842 126.449 34.5176C126.449 35.251 126.456 35.8393 126.472 36.2823C126.502 36.7254 126.571 37.0539 126.678 37.2678C126.785 37.4818 126.96 37.6193 127.205 37.6804C127.465 37.7415 127.824 37.7721 128.282 37.7721Z" fill="#F36F56"/>
<path d="M23.9667 3.52911L9.18707 1.0918L6.30656 2.24291L12.5878 8.59902M6.28258 14.0968L2.69331 10.4647C2.69331 10.4647 0.923527 14.3199 1.00257 16.7273C1.08161 19.1346 3.87064 21.1461 6.67708 20.0242C9.48449 18.9023 41.795 4.88588 41.795 4.88588L33.1325 2.56966L6.28258 14.0968Z" stroke="#F36F56" stroke-width="1.83348" stroke-linecap="round" stroke-linejoin="round"/>
</svg>
