<svg xmlns="http://www.w3.org/2000/svg" width="36" height="37" viewBox="0 0 36 37" fill="none">
    <path d="M18 28.6094C18.625 28.6094 19.1565 28.3904 19.5945 27.9524C20.0325 27.5144 20.251 26.9834 20.25 26.3594H15.75C15.75 26.9844 15.969 27.5159 16.407 27.9539C16.845 28.3919 17.376 28.6104 18 28.6094ZM10.5 24.8594H25.5V21.8594H24V17.9594C24 16.4344 23.606 15.0404 22.818 13.7774C22.03 12.5144 20.924 11.7084 19.5 11.3594V10.6094C19.5 10.1844 19.356 9.82788 19.068 9.53988C18.78 9.25188 18.424 9.10838 18 9.10938C17.575 9.10938 17.2185 9.25338 16.9305 9.54138C16.6425 9.82938 16.499 10.1854 16.5 10.6094V11.3594C15.075 11.7094 13.969 12.5159 13.182 13.7789C12.395 15.0419 12.001 16.4354 12 17.9594V21.8594H10.5V24.8594ZM18 33.8594C15.925 33.8594 13.975 33.4654 12.15 32.6774C10.325 31.8894 8.7375 30.8209 7.3875 29.4719C6.0375 28.1219 4.969 26.5344 4.182 24.7094C3.395 22.8844 3.001 20.9344 3 18.8594C3 16.7844 3.394 14.8344 4.182 13.0094C4.97 11.1844 6.0385 9.59688 7.3875 8.24688C8.7375 6.89688 10.325 5.82838 12.15 5.04138C13.975 4.25438 15.925 3.86037 18 3.85938C20.075 3.85938 22.025 4.25338 23.85 5.04138C25.675 5.82938 27.2625 6.89788 28.6125 8.24688C29.9625 9.59688 31.0315 11.1844 31.8195 13.0094C32.6075 14.8344 33.001 16.7844 33 18.8594C33 20.9344 32.606 22.8844 31.818 24.7094C31.03 26.5344 29.9615 28.1219 28.6125 29.4719C27.2625 30.8219 25.675 31.8909 23.85 32.6789C22.025 33.4669 20.075 33.8604 18 33.8594Z" fill="#F36F56"/>
</svg>