<svg width="60" height="54" viewBox="0 0 60 54" fill="none" xmlns="http://www.w3.org/2000/svg">
<g id="lets-icons:check-fill" opacity="0.9">
<path id="Vector" fill-rule="evenodd" clip-rule="evenodd" d="M29.25 47.5C31.9093 47.5 34.5425 46.9762 36.9993 45.9586C39.4562 44.9409 41.6885 43.4493 43.5689 41.5689C45.4493 39.6885 46.9409 37.4562 47.9586 34.9993C48.9762 32.5425 49.5 29.9093 49.5 27.25C49.5 24.5907 48.9762 21.9575 47.9586 19.5007C46.9409 17.0438 45.4493 14.8115 43.5689 12.9311C41.6885 11.0507 39.4562 9.5591 36.9993 8.54144C34.5425 7.52378 31.9093 7 29.25 7C23.8794 7 18.7287 9.13348 14.9311 12.9311C11.1335 16.7287 9 21.8794 9 27.25C9 32.6206 11.1335 37.7713 14.9311 41.5689C18.7287 45.3665 23.8794 47.5 29.25 47.5ZM28.728 35.44L39.978 21.94L36.522 19.06L26.847 30.6677L21.8407 25.6593L18.6593 28.8407L25.4093 35.5907L27.1508 37.3323L28.728 35.44Z" fill="white"/>
<path id="Vector_2" d="M29.5 41.2227L27.5425 39.4407C20.59 33.1362 16 28.9647 16 23.8752C16 19.7037 19.267 16.4502 23.425 16.4502C25.774 16.4502 28.0285 17.5437 29.5 19.2582C30.9715 17.5437 33.226 16.4502 35.575 16.4502C39.733 16.4502 43 19.7037 43 23.8752C43 28.9647 38.41 33.1362 31.4575 39.4407L29.5 41.2227Z" fill="#F36F56"/>
</g>
</svg>
