<svg xmlns="http://www.w3.org/2000/svg" width="34" height="35" viewBox="0 0 34 35" fill="none">
    <path d="M15.5911 3.03906L25.93 6.26906C26.2183 6.35908 26.4704 6.53891 26.6493 6.7823C26.8282 7.0257 26.9246 7.3199 26.9245 7.62198V10.1224H29.7578C30.1335 10.1224 30.4939 10.2717 30.7596 10.5373C31.0252 10.803 31.1745 11.1633 31.1745 11.5391V22.8724C31.1745 23.2481 31.0252 23.6085 30.7596 23.8741C30.4939 24.1398 30.1335 24.2891 29.7578 24.2891L25.1961 24.2905C24.6479 25.013 23.9821 25.6505 23.2128 26.1746L15.5911 31.3724L7.96948 26.1761C6.82555 25.3961 5.88946 24.3486 5.24259 23.1244C4.59573 21.9003 4.25767 20.5367 4.25781 19.1522V7.62198C4.25798 7.32015 4.35455 7.02626 4.53344 6.78315C4.71233 6.54004 4.96419 6.36043 5.25231 6.27048L15.5911 3.03906ZM15.5911 6.00556L7.09115 8.66323V19.1522C7.09094 20.0196 7.28983 20.8753 7.6725 21.6537C8.05516 22.432 8.61138 23.1121 9.29831 23.6416L9.56606 23.8343L15.5911 27.9426L20.949 24.2891H14.1745C13.7988 24.2891 13.4384 24.1398 13.1727 23.8741C12.9071 23.6085 12.7578 23.2481 12.7578 22.8724V11.5391C12.7578 11.1633 12.9071 10.803 13.1727 10.5373C13.4384 10.2717 13.7988 10.1224 14.1745 10.1224H24.0911V8.66323L15.5911 6.00556ZM15.5911 17.2057V21.4557H28.3411V17.2057H15.5911ZM15.5911 14.3724H28.3411V12.9557H15.5911V14.3724Z" fill="#F36F56"/>
</svg>