<svg xmlns="http://www.w3.org/2000/svg" width="25" height="25" viewBox="0 0 25 25" fill="none">
    <path d="M3.125 13.542C6.875 5.20866 18.125 5.20866 21.875 13.542" stroke="black" stroke-width="1.5625" stroke-linecap="round" stroke-linejoin="round"/>
    <path d="M12.5 17.709C12.0896 17.709 11.6833 17.6282 11.3041 17.4711C10.925 17.3141 10.5805 17.0839 10.2903 16.7937C10.0001 16.5035 9.76992 16.159 9.61288 15.7799C9.45583 15.4007 9.375 14.9944 9.375 14.584C9.375 14.1736 9.45583 13.7672 9.61288 13.3881C9.76992 13.009 10.0001 12.6645 10.2903 12.3743C10.5805 12.0841 10.925 11.8539 11.3041 11.6969C11.6833 11.5398 12.0896 11.459 12.5 11.459C13.3288 11.459 14.1237 11.7882 14.7097 12.3743C15.2958 12.9603 15.625 13.7552 15.625 14.584C15.625 15.4128 15.2958 16.2076 14.7097 16.7937C14.1237 17.3797 13.3288 17.709 12.5 17.709Z" fill="black" stroke="black" stroke-width="1.5625" stroke-linecap="round" stroke-linejoin="round"/>
</svg>