<svg xmlns="http://www.w3.org/2000/svg" width="61" height="60" viewBox="0 0 61 60" fill="none">
    <g clip-path="url(#clip0_1106_15020)">
        <path d="M24.246 14.4828C27.796 9.72283 33.1335 8.33283 38.0435 9.67033C43.3435 11.1128 48.0035 15.6653 49.551 22.0053C49.631 22.3303 49.7001 22.6553 49.7585 22.9803C47.5246 22.1843 45.0947 22.123 42.8235 22.8053C39.606 20.4253 35.621 20.0253 32.0785 21.3303C27.641 22.9678 24.176 27.1203 23.3735 32.3453C22.3485 39.0353 26.4235 45.0453 32.186 50.1553L33.156 50.9953C32.3735 51.0503 31.5785 50.9278 30.8185 50.7653C30.428 50.6813 30.0395 50.588 29.6535 50.4853L28.311 50.1103C16.376 46.7528 8.38599 41.5003 6.09349 33.6503C4.26349 27.3853 6.02349 21.1128 9.89349 17.2128C13.4785 13.6003 18.7935 12.1353 24.246 14.4828ZM28.316 33.1028C29.386 26.1228 37.4585 22.6828 41.6035 28.6728C41.6432 28.7285 41.7033 28.7663 41.7707 28.778C41.838 28.7897 41.9073 28.7744 41.9635 28.7353C47.906 24.5253 54.3135 30.5178 52.931 37.4428C52.131 41.4595 48.406 44.7928 41.756 47.4428L40.6685 47.8678L40.011 48.1378C39.4435 48.3603 38.8435 48.5378 38.301 48.4428C37.761 48.3478 37.2585 47.9728 36.801 47.5728L36.026 46.8728C30.2427 41.8962 27.6727 37.3062 28.316 33.1028Z" fill="#333333"/>
    </g>
    <defs>
        <clipPath id="clip0_1106_15020">
            <rect width="60" height="60" fill="white" transform="translate(0.5)"/>
        </clipPath>
    </defs>
</svg>