<svg width="27" height="27" viewBox="0 0 27 27" fill="none" xmlns="http://www.w3.org/2000/svg">
<circle cx="13.7051" cy="13.1074" r="13.1074" fill="#EC8C6F"/>
<path d="M17.4426 15.9065C17.6109 16.0935 17.6109 16.374 17.4239 16.5423L16.9004 17.0658C16.7321 17.2528 16.4516 17.2528 16.2646 17.0658L14.4135 15.2147C14.32 15.1212 14.2826 15.009 14.2826 14.8968V14.5789C13.6095 15.1025 12.7868 15.4017 11.8892 15.4017C9.73894 15.4017 8 13.6627 8 11.5124C8 9.3808 9.73894 7.62316 11.8892 7.62316C14.0209 7.62316 15.7785 9.3808 15.7785 11.5124C15.7785 12.4286 15.4606 13.2514 14.9558 13.9058H15.2549C15.3671 13.9058 15.4793 13.9619 15.5728 14.0367L17.4426 15.9065ZM11.8892 13.9058C13.1981 13.9058 14.2826 12.84 14.2826 11.5124C14.2826 10.2035 13.1981 9.11903 11.8892 9.11903C10.5617 9.11903 9.49586 10.2035 9.49586 11.5124C9.49586 12.84 10.5617 13.9058 11.8892 13.9058Z" fill="white"/>
</svg>
