<svg xmlns="http://www.w3.org/2000/svg" width="33" height="34" viewBox="0 0 33 34" fill="none">
    <path d="M12.7191 30.4551L12.1691 26.0551C11.8712 25.9405 11.5903 25.803 11.3263 25.6426C11.0623 25.4822 10.8047 25.3103 10.5535 25.127L6.46289 26.8457L2.68164 20.3145L6.22227 17.6332C6.19935 17.4728 6.18789 17.3179 6.18789 17.1685V16.2417C6.18789 16.0923 6.19935 15.9374 6.22227 15.777L2.68164 13.0957L6.46289 6.56445L10.5535 8.2832C10.8056 8.09987 11.0691 7.92799 11.3441 7.76758C11.6191 7.60716 11.8941 7.46966 12.1691 7.35508L12.7191 2.95508H20.2816L20.8316 7.35508C21.1296 7.46966 21.4105 7.60716 21.6745 7.76758C21.9385 7.92799 22.1961 8.09987 22.4473 8.2832L26.5379 6.56445L30.3191 13.0957L26.7785 15.777C26.8014 15.9374 26.8129 16.0923 26.8129 16.2417V17.1685C26.8129 17.3179 26.79 17.4728 26.7441 17.6332L30.2848 20.3145L26.5035 26.8457L22.4473 25.127C22.1952 25.3103 21.9316 25.4822 21.6566 25.6426C21.3816 25.803 21.1066 25.9405 20.8316 26.0551L20.2816 30.4551H12.7191ZM16.5691 21.5176C17.8983 21.5176 19.0327 21.0478 19.9723 20.1082C20.9118 19.1686 21.3816 18.0342 21.3816 16.7051C21.3816 15.3759 20.9118 14.2415 19.9723 13.302C19.0327 12.3624 17.8983 11.8926 16.5691 11.8926C15.2171 11.8926 14.0767 12.3624 13.1481 13.302C12.2196 14.2415 11.7557 15.3759 11.7566 16.7051C11.7566 18.0342 12.2205 19.1686 13.1481 20.1082C14.0758 21.0478 15.2161 21.5176 16.5691 21.5176Z" fill="#F36F56"/>
</svg>