<svg xmlns="http://www.w3.org/2000/svg" width="20" height="20" viewBox="0 0 20 20" fill="none">
    <path d="M14.5827 3.95833C14.5827 4.34511 14.429 4.71604 14.1555 4.98953C13.8821 5.26302 13.5111 5.41667 13.1243 5.41667C12.7376 5.41667 12.3666 5.26302 12.0932 4.98953C11.8197 4.71604 11.666 4.34511 11.666 3.95833C11.666 3.57156 11.8197 3.20063 12.0932 2.92714C12.3666 2.65365 12.7376 2.5 13.1243 2.5C13.5111 2.5 13.8821 2.65365 14.1555 2.92714C14.429 3.20063 14.5827 3.57156 14.5827 3.95833Z" fill="#F36F56"/>
    <path fill-rule="evenodd" clip-rule="evenodd" d="M13.1257 4.58333C13.2914 4.58333 13.4504 4.51749 13.5676 4.40028C13.6848 4.28306 13.7507 4.12409 13.7507 3.95833C13.7507 3.79257 13.6848 3.6336 13.5676 3.51639C13.4504 3.39918 13.2914 3.33333 13.1257 3.33333C12.9599 3.33333 12.8009 3.39918 12.6837 3.51639C12.5665 3.6336 12.5007 3.79257 12.5007 3.95833C12.5007 4.12409 12.5665 4.28306 12.6837 4.40028C12.8009 4.51749 12.9599 4.58333 13.1257 4.58333ZM13.1257 5.41667C13.3172 5.41667 13.5068 5.37895 13.6837 5.30566C13.8607 5.23237 14.0214 5.12495 14.1568 4.98953C14.2923 4.85411 14.3997 4.69335 14.473 4.51641C14.5463 4.33948 14.584 4.14984 14.584 3.95833C14.584 3.76682 14.5463 3.57719 14.473 3.40025C14.3997 3.22332 14.2923 3.06255 14.1568 2.92714C14.0214 2.79172 13.8607 2.6843 13.6837 2.61101C13.5068 2.53772 13.3172 2.5 13.1257 2.5C12.7389 2.5 12.3679 2.65365 12.0945 2.92714C11.821 3.20063 11.6673 3.57156 11.6673 3.95833C11.6673 4.34511 11.821 4.71604 12.0945 4.98953C12.3679 5.26302 12.7389 5.41667 13.1257 5.41667ZM7.91732 6.66667C7.6963 6.66667 7.48434 6.75446 7.32806 6.91074C7.17178 7.06702 7.08398 7.27899 7.08398 7.5C7.08398 7.72101 7.17178 7.93297 7.32806 8.08926C7.48434 8.24554 7.6963 8.33333 7.91732 8.33333H10.834V16.6667C10.834 16.8877 10.9218 17.0996 11.0781 17.2559C11.2343 17.4122 11.4463 17.5 11.6673 17.5C11.8883 17.5 12.1003 17.4122 12.2566 17.2559C12.4129 17.0996 12.5007 16.8877 12.5007 16.6667V12.9167H13.7507V16.6667C13.7507 16.8877 13.8384 17.0996 13.9947 17.2559C14.151 17.4122 14.363 17.5 14.584 17.5C14.805 17.5 15.017 17.4122 15.1732 17.2559C15.3295 17.0996 15.4173 16.8877 15.4173 16.6667V11.6321C16.034 11.5259 16.5885 11.1925 16.9713 10.6975C17.3542 10.2025 17.5375 9.58194 17.4852 8.95837C17.4329 8.3348 17.1487 7.7535 16.6887 7.32923C16.2287 6.90496 15.6264 6.66855 15.0007 6.66667H7.91732ZM16.2507 9.16667C16.2507 8.94565 16.1629 8.73369 16.0066 8.57741C15.8503 8.42113 15.6383 8.33333 15.4173 8.33333V10C15.6383 10 15.8503 9.9122 16.0066 9.75592C16.1629 9.59964 16.2507 9.38768 16.2507 9.16667Z" fill="#F36F56"/>
    <path fill-rule="evenodd" clip-rule="evenodd" d="M2.5 13.333C2.5 13.112 2.5878 12.9 2.74408 12.7438C2.90036 12.5875 3.11232 12.4997 3.33333 12.4997H8.75C8.97101 12.4997 9.18297 12.5875 9.33926 12.7438C9.49554 12.9 9.58333 13.112 9.58333 13.333V16.6663C9.58333 16.8874 9.49554 17.0993 9.33926 17.2556C9.18297 17.4119 8.97101 17.4997 8.75 17.4997H3.33333C3.11232 17.4997 2.90036 17.4119 2.74408 17.2556C2.5878 17.0993 2.5 16.8874 2.5 16.6663V13.333ZM4.16667 16.2497V13.7497H5V16.2497H4.16667ZM7.08333 13.7497V16.2497H7.91667V13.7497H7.08333ZM4.58333 11.6663C4.58333 11.4453 4.67113 11.2334 4.82741 11.0771C4.98369 10.9208 5.19565 10.833 5.41667 10.833H6.66667C6.88768 10.833 7.09964 10.9208 7.25592 11.0771C7.4122 11.2334 7.5 11.4453 7.5 11.6663V12.4997H6.66667V11.6663H5.41667V12.4997H4.58333V11.6663Z" fill="#F36F56"/>
</svg>