<svg xmlns="http://www.w3.org/2000/svg" width="20" height="20" viewBox="0 0 20 20" fill="none">
<path d="M11.6673 17.5007V14.9382L16.2715 10.3548C16.3965 10.2298 16.5354 10.1395 16.6882 10.084C16.8409 10.0284 16.9937 10.0007 17.1465 10.0007C17.3132 10.0007 17.4729 10.032 17.6257 10.0948C17.7784 10.1576 17.9173 10.2512 18.0423 10.3757L18.8132 11.1465C18.9243 11.2715 19.0112 11.4104 19.074 11.5632C19.1368 11.7159 19.1679 11.8687 19.1673 12.0215C19.1668 12.1743 19.139 12.3307 19.084 12.4907C19.029 12.6507 18.9387 12.7929 18.8132 12.9173L14.2298 17.5007H11.6673ZM3.33398 16.6673V14.334C3.33398 13.8618 3.45565 13.4279 3.69898 13.0323C3.94232 12.6368 4.2651 12.3345 4.66732 12.1257C5.52843 11.6951 6.40343 11.3723 7.29232 11.1573C8.18121 10.9423 9.08398 10.8345 10.0007 10.834C10.5145 10.834 11.0215 10.8654 11.5215 10.9282C12.0215 10.9909 12.5215 11.0915 13.0215 11.2298L10.0007 14.2507V16.6673H3.33398ZM17.1465 12.834L17.9173 12.0215L17.1465 11.2507L16.3548 12.0423L17.1465 12.834ZM10.0007 10.0007C9.08398 10.0007 8.29926 9.67426 7.64648 9.02148C6.99371 8.36871 6.66732 7.58398 6.66732 6.66732C6.66732 5.75065 6.99371 4.96593 7.64648 4.31315C8.29926 3.66037 9.08398 3.33398 10.0007 3.33398C10.9173 3.33398 11.702 3.66037 12.3548 4.31315C13.0076 4.96593 13.334 5.75065 13.334 6.66732C13.334 7.58398 13.0076 8.36871 12.3548 9.02148C11.702 9.67426 10.9173 10.0007 10.0007 10.0007Z" fill="#F36F56"/>
</svg>