<svg xmlns="http://www.w3.org/2000/svg" width="40" height="60" viewBox="0 0 40 60" fill="none">
    <path d="M22.1789 6.8642C20.4211 6.81967 18.6633 8.39935 18.3 10.7818C17.9133 13.3224 19.3312 15.4669 21.2062 15.7482C23.0812 16.0294 25.0617 14.4005 25.4367 11.8576C25.8234 9.31225 24.4172 7.17709 22.5305 6.89467C22.4133 6.87709 22.2961 6.86654 22.1789 6.8642ZM35.4562 15.9122L33.4406 16.5216L34.4133 19.8146L36.6281 19.8732L35.4562 15.9122ZM18.5109 16.8029C18.1945 25.0646 18.4641 33.3146 18.0891 40.5333C16.2375 44.7286 13.7883 48.7599 12.1852 52.1583L15.1945 53.6115C17.632 49.6622 20.1398 45.6427 21.6633 41.5529L22.9875 34.1232L29.1984 39.5021L31.0969 49.8263L34.5305 49.1466L32.468 37.3576L25.6594 31.0763L24.5695 20.9513L30.2062 24.6193C33.3352 24.7247 35.4914 24.3966 38.3625 23.9513L38.4797 22.0412L30.1828 21.7951L24.7336 16.8732C23.6203 17.6583 22.2844 18.0451 20.8898 17.8341C19.9875 17.6935 19.1906 17.3302 18.5109 16.8029ZM16.5656 18.3263L11.823 19.6974L11.1246 29.7169C12.7102 30.5021 14.7609 31.0763 16.1906 30.1154L16.5656 18.3263ZM57.8976 25.9787L46.6828 35.131L42.9328 41.213L38.468 26.0724C37.7297 26.1779 37.0383 26.2833 36.3586 26.3771L41.4562 43.6154L38.8078 47.9161L36.5344 48.3146L36.968 50.8107L29.4094 52.3107L28.9172 49.6505L19.0383 51.3849C17.925 53.213 17.0344 54.6544 15.9914 56.3302L10.1883 53.5294L2.84766 57.6076H57.8976V25.9787Z" fill="#333333"/>
</svg>