<svg xmlns="http://www.w3.org/2000/svg" width="23" height="23" viewBox="0 0 23 23" fill="none">
    <path d="M6.86 9.64323C6.22658 9.64781 5.84525 9.66706 5.54183 9.74773C4.1595 10.1144 3.2135 11.3519 3.25108 12.7452C3.26208 13.1495 3.41608 13.6491 3.72316 14.6473C4.46291 17.049 5.70683 19.1344 8.49166 19.634C9.00408 19.7266 9.58066 19.7266 10.7329 19.7266H12.2674C13.4197 19.7266 13.9962 19.7266 14.5087 19.6349C17.2935 19.1344 18.5374 17.049 19.2772 14.6473C19.5842 13.6481 19.7382 13.1495 19.7492 12.7461C19.7859 11.3519 18.8408 10.1135 17.4585 9.74773C17.156 9.66706 16.7737 9.64781 16.1412 9.64323M11.5002 3.22656V13.3099M11.5002 3.22656C11.9292 3.22656 12.2555 3.62806 12.9082 4.43106L13.7918 5.51823M11.5002 3.22656C11.0712 3.22656 10.7448 3.62806 10.0922 4.43106L9.2085 5.51823" stroke="black" stroke-width="1.6" stroke-linecap="round" stroke-linejoin="round"/>
</svg>