<svg xmlns="http://www.w3.org/2000/svg" width="16" height="16" viewBox="0 0 16 16" fill="none">
    <path fill-rule="evenodd" clip-rule="evenodd" d="M4.875 4.87541C4.87395 4.11405 5.15089 3.3785 5.6538 2.80689C6.15671 2.23527 6.85101 1.86692 7.6063 1.771C8.3616 1.67508 9.12593 1.8582 9.75575 2.28596C10.3856 2.71373 10.8376 3.35671 11.0269 4.09416C11.0683 4.2547 11.0443 4.42513 10.9601 4.56795C10.8759 4.71077 10.7384 4.81428 10.5778 4.85572C10.4173 4.89716 10.2468 4.87313 10.104 4.78892C9.96121 4.7047 9.85769 4.5672 9.81625 4.40666C9.70277 3.96408 9.4316 3.57816 9.05366 3.3214C8.67573 3.06464 8.21705 2.95471 7.76379 3.01227C7.31053 3.06983 6.89388 3.29091 6.59212 3.63399C6.29036 3.97706 6.12425 4.41851 6.125 4.87541V6.75041H11.375C11.925 6.75041 12.375 7.20041 12.375 7.75041V12.1254C12.375 12.9504 11.7 13.6254 10.875 13.6254H5.125C4.3 13.6254 3.625 12.9504 3.625 12.1254V7.75041C3.625 7.20041 4.075 6.75041 4.625 6.75041H4.875V4.87541ZM8 8.15666C7.75146 8.1564 7.51025 8.2408 7.31608 8.39595C7.12192 8.5511 6.98639 8.76776 6.93181 9.01023C6.87723 9.2527 6.90686 9.50653 7.01582 9.72991C7.12478 9.95329 7.30657 10.1329 7.53125 10.2392V11.7504C7.53125 11.8747 7.58064 11.994 7.66854 12.0819C7.75645 12.1698 7.87568 12.2192 8 12.2192C8.12432 12.2192 8.24355 12.1698 8.33146 12.0819C8.41936 11.994 8.46875 11.8747 8.46875 11.7504V10.2392C8.69343 10.1329 8.87522 9.95329 8.98418 9.72991C9.09314 9.50653 9.12277 9.2527 9.06819 9.01023C9.01361 8.76776 8.87808 8.5511 8.68392 8.39595C8.48975 8.2408 8.24854 8.1564 8 8.15666Z" fill="white"/>
</svg>