<svg xmlns="http://www.w3.org/2000/svg" width="26" height="20" viewBox="0 0 26 20" fill="none">
    <path d="M26 6.53275C26.0004 6.07996 25.8892 5.63341 25.6754 5.22908C25.4616 4.82474 25.1511 4.47393 24.769 4.2049C24.3869 3.93587 23.9438 3.75615 23.4754 3.68022C23.0071 3.60428 22.5266 3.63426 22.0726 3.76773C21.6187 3.90121 21.2039 4.13445 20.8619 4.44866C20.5198 4.76287 20.2599 5.14926 20.1033 5.57671C19.9466 6.00416 19.8974 6.46072 19.9597 6.90959C20.0698 7.702 20.0979 8.58859 19.5792 9.19763L19.4976 9.29344C18.595 10.3531 16.8972 10.1162 16.3192 8.84993L15.6942 7.48092C15.2568 6.5226 15.644 5.39907 15.9279 4.3846C16.0882 3.81172 16.0599 3.2057 15.8467 2.6487C15.6335 2.0917 15.2457 1.61064 14.736 1.27074C14.2263 0.930841 13.6192 0.748535 12.9971 0.748535C12.3751 0.748535 11.768 0.930841 11.2583 1.27074C10.7486 1.61064 10.3608 2.0917 10.1476 2.6487C9.9344 3.2057 9.90605 3.81172 10.0664 4.3846C10.3504 5.39923 10.7381 6.52267 10.3013 7.48147L9.68016 8.84475C9.10302 10.1115 7.40504 10.3491 6.50239 9.28936C5.93612 8.62455 5.97417 7.65208 6.05473 6.78251C6.06692 6.65098 6.06969 6.51825 6.06277 6.3852C6.03005 5.75564 5.78234 5.15353 5.35737 4.67056C4.9324 4.18759 4.35346 3.85024 3.70872 3.70987C3.06397 3.5695 2.38876 3.63382 1.78592 3.89302C1.18307 4.15222 0.685631 4.59211 0.369352 5.14568C0.0530727 5.69925 -0.0647111 6.33618 0.0339385 6.95946C0.132588 7.58273 0.442265 8.1582 0.915806 8.59821C1.76267 9.38512 2.79339 10.1766 2.9925 11.3154L4.22566 18.3681C4.2931 18.7538 4.50189 19.1042 4.81491 19.357C5.12792 19.6097 5.52485 19.7485 5.93511 19.7485H20.0657C20.4759 19.7485 20.8729 19.6097 21.1859 19.357C21.4989 19.1042 21.7077 18.7538 21.7751 18.3681L22.9692 11.5377C23.1908 10.2695 24.3655 9.39026 25.2405 8.44584C25.7298 7.91767 25.9999 7.23736 26 6.53275ZM13.0004 2.40282C13.2575 2.40282 13.5088 2.47549 13.7226 2.61163C13.9364 2.74777 14.103 2.94127 14.2014 3.16766C14.2998 3.39406 14.3255 3.64317 14.2754 3.88351C14.2252 4.12385 14.1014 4.34462 13.9196 4.51789C13.7378 4.69117 13.5062 4.80917 13.254 4.85697C13.0018 4.90478 12.7405 4.88024 12.5029 4.78647C12.2654 4.69269 12.0624 4.53389 11.9195 4.33014C11.7767 4.12639 11.7004 3.88685 11.7004 3.6418C11.7004 3.3132 11.8374 2.99806 12.0812 2.76571C12.325 2.53336 12.6556 2.40282 13.0004 2.40282ZM1.73407 6.53275C1.73407 6.28771 1.81031 6.04816 1.95316 5.84441C2.096 5.64066 2.29902 5.48186 2.53656 5.38808C2.7741 5.29431 3.03548 5.26977 3.28764 5.31758C3.53981 5.36539 3.77144 5.48339 3.95324 5.65666C4.13505 5.82994 4.25886 6.0507 4.30902 6.29104C4.35918 6.53138 4.33343 6.7805 4.23504 7.00689C4.13665 7.23328 3.97003 7.42679 3.75625 7.56293C3.54248 7.69907 3.29114 7.77173 3.03403 7.77173C2.68926 7.77173 2.35861 7.6412 2.11482 7.40884C1.87103 7.17649 1.73407 6.86135 1.73407 6.53275ZM22.9668 7.77173C22.7097 7.77173 22.4583 7.69907 22.2445 7.56293C22.0308 7.42679 21.8641 7.23328 21.7658 7.00689C21.6674 6.7805 21.6416 6.53138 21.6918 6.29104C21.7419 6.0507 21.8657 5.82994 22.0475 5.65666C22.2294 5.48339 22.461 5.36539 22.7132 5.31758C22.9653 5.26977 23.2267 5.29431 23.4642 5.38808C23.7018 5.48186 23.9048 5.64066 24.0476 5.84441C24.1905 6.04816 24.2667 6.28771 24.2667 6.53275C24.2667 6.86135 24.1298 7.17649 23.886 7.40884C23.6422 7.6412 23.3115 7.77173 22.9668 7.77173Z" fill="#F36F56"/>
</svg>