<svg xmlns="http://www.w3.org/2000/svg" width="15" height="15" viewBox="0 0 15 15" fill="none">
    <g clip-path="url(#clip0_2557_15389)">
        <path d="M10.522 10.1206L9.98239 11.1352L12.6242 10.7033C12.0911 10.4359 11.3694 10.2448 10.522 10.1206ZM3.71655 10.3418C2.49295 10.6645 1.71777 11.1933 1.71777 11.9787C1.71828 12.1478 1.75524 12.3148 1.82613 12.4683L6.06603 11.7753L3.71655 10.3418ZM13.5184 11.5206L7.61737 12.4824L9.17361 14.2528C11.7292 14.0239 13.6178 13.2076 13.6178 11.9787C13.6178 11.8149 13.5825 11.6626 13.5184 11.5206ZM6.62029 12.6484L2.63309 13.3001C3.68701 13.953 5.54719 14.3206 7.66777 14.3206C7.79629 14.3206 7.92187 14.317 8.04843 14.3143L6.62029 12.6484Z" fill="#333333"/>
        <path d="M7.66901 0.320801C5.38701 0.320801 3.51465 2.18742 3.51465 4.46424C3.51465 5.33952 3.79283 6.15488 4.26253 6.82534L6.95529 11.4803L6.96677 11.4953C7.07303 11.6341 7.17677 11.7435 7.29857 11.824C7.42037 11.9047 7.57157 11.9528 7.71997 11.938C8.01649 11.9083 8.19807 11.6989 8.37041 11.4654L8.37965 11.4533L11.3524 6.39358L11.3541 6.39036C11.4238 6.26436 11.4753 6.13612 11.519 6.01124C11.7193 5.52007 11.8225 4.9947 11.8228 4.46424C11.8228 2.18742 9.95101 0.320801 7.66901 0.320801ZM7.66901 2.7071C8.65895 2.7071 9.43161 3.47836 9.43161 4.4641C9.43161 5.45012 8.65895 6.2211 7.66901 6.2211C6.67893 6.2211 5.90585 5.44998 5.90585 4.4641C5.90585 3.4785 6.67907 2.7071 7.66901 2.7071Z" fill="#333333"/>
    </g>
    <defs>
        <clipPath id="clip0_2557_15389">
            <rect width="14" height="14" fill="white" transform="translate(0.666992 0.49707)"/>
        </clipPath>
    </defs>
</svg>