<svg xmlns="http://www.w3.org/2000/svg" width="20" height="21" viewBox="0 0 20 21" fill="none">
    <path d="M12.1459 3.64689C12.1924 3.60033 12.2475 3.56339 12.3083 3.53818C12.369 3.51297 12.4341 3.5 12.4999 3.5C12.5657 3.5 12.6308 3.51297 12.6916 3.53818C12.7523 3.56339 12.8075 3.60033 12.8539 3.64689L15.8539 6.64689C15.9005 6.69334 15.9374 6.74851 15.9626 6.80926C15.9878 6.87001 16.0008 6.93513 16.0008 7.00089C16.0008 7.06666 15.9878 7.13178 15.9626 7.19253C15.9374 7.25327 15.9005 7.30845 15.8539 7.35489L12.8539 10.3549C12.8074 10.4014 12.7522 10.4383 12.6915 10.4634C12.6308 10.4886 12.5657 10.5015 12.4999 10.5015C12.4342 10.5015 12.3691 10.4886 12.3083 10.4634C12.2476 10.4383 12.1924 10.4014 12.1459 10.3549C12.0994 10.3084 12.0626 10.2532 12.0374 10.1925C12.0122 10.1317 11.9993 10.0666 11.9993 10.0009C11.9993 9.93515 12.0122 9.87005 12.0374 9.80931C12.0626 9.74857 12.0994 9.69338 12.1459 9.64689L14.2929 7.50089H4.49992C4.36731 7.50089 4.24013 7.44822 4.14636 7.35445C4.0526 7.26068 3.99992 7.1335 3.99992 7.00089C3.99992 6.86829 4.0526 6.74111 4.14636 6.64734C4.24013 6.55357 4.36731 6.50089 4.49992 6.50089H14.2929L12.1459 4.35489C12.0994 4.30845 12.0624 4.25327 12.0372 4.19253C12.012 4.13178 11.999 4.06666 11.999 4.00089C11.999 3.93513 12.012 3.87001 12.0372 3.80926C12.0624 3.74851 12.0994 3.69334 12.1459 3.64689ZM7.85392 10.6469C7.90048 10.6933 7.93742 10.7485 7.96263 10.8093C7.98784 10.87 8.00081 10.9351 8.00081 11.0009C8.00081 11.0667 7.98784 11.1318 7.96263 11.1925C7.93742 11.2533 7.90048 11.3084 7.85392 11.3549L5.70692 13.5009H15.4999C15.6325 13.5009 15.7597 13.5536 15.8535 13.6473C15.9472 13.7411 15.9999 13.8683 15.9999 14.0009C15.9999 14.1335 15.9472 14.2607 15.8535 14.3544C15.7597 14.4482 15.6325 14.5009 15.4999 14.5009H5.70692L7.85392 16.6469C7.9478 16.7408 8.00055 16.8681 8.00055 17.0009C8.00055 17.1337 7.9478 17.261 7.85392 17.3549C7.76003 17.4488 7.63269 17.5015 7.49992 17.5015C7.36714 17.5015 7.2398 17.4488 7.14592 17.3549L4.14592 14.3549C4.09935 14.3084 4.06241 14.2533 4.0372 14.1925C4.012 14.1318 3.99902 14.0667 3.99902 14.0009C3.99902 13.9351 4.012 13.87 4.0372 13.8093C4.06241 13.7485 4.09935 13.6933 4.14592 13.6469L7.14592 10.6469C7.19236 10.6003 7.24754 10.5634 7.30828 10.5382C7.36903 10.513 7.43415 10.5 7.49992 10.5C7.56568 10.5 7.63081 10.513 7.69155 10.5382C7.7523 10.5634 7.80747 10.6003 7.85392 10.6469Z" fill="#3C3C43" fill-opacity="0.85"/>
</svg>