<svg width="409" height="133" viewBox="0 0 409 133" fill="none" xmlns="http://www.w3.org/2000/svg">
<g clip-path="url(#clip0_1825_41599)">
<g clip-path="url(#clip1_1825_41599)">
<path fill-rule="evenodd" clip-rule="evenodd" d="M53.7711 117.873C63.7093 129.493 70.7831 120.34 110.787 88.3682C117.052 83.3523 124.373 78.5517 123.032 70.3376C122.219 65.4543 119.163 61.8645 98.0568 35.8492C83.2063 17.4951 79.1241 8.91821 66.1134 14.3801C58.9486 18.1141 52.4249 22.9746 46.8011 28.7727C15.0466 55.3175 10.4978 56.1463 14.004 65.5338C17.2038 74.2304 47.7588 110.865 53.7682 117.875L53.7711 117.873ZM32.7624 86.0924C44.2559 100.068 59.1093 117.181 59.7489 117.759C63.8629 121.209 76.4167 109.732 107.719 84.5365C125.298 70.3763 123.084 75.0746 83.8608 25.6772C81.3471 22.538 78.0548 17.7865 74.042 17.1148C68.2156 17.454 62.697 19.8434 58.4628 23.86C21.5869 55.8938 11.4481 55.3901 18.0193 66.6042C22.1122 73.5888 27.6068 79.8283 32.7624 86.0924Z" fill="white"/>
<path fill-rule="evenodd" clip-rule="evenodd" d="M64.5422 77.9265C72.4415 84.9236 70.2884 81.6355 69.5262 87.6586C68.3359 97.7836 80.4296 102.573 84.5479 87.6809C90.367 88.1127 95.7339 87.02 95.6848 81.1528C95.6044 79.3191 94.8555 77.5782 93.5794 76.2589C92.3032 74.9395 90.5882 74.1331 88.7582 73.9918C79.7213 71.6647 83.5697 75.5284 77.5562 65.8428C81.9953 64.813 90.3604 63.2294 93.1272 58.5638C93.8791 57.2891 94.1182 55.7764 93.7963 54.332C93.4744 52.8876 92.6154 51.6195 91.3935 50.7848C84.7964 45.2511 73.6909 48.2231 66.204 49.1873C64.158 46.0553 61.5021 43.3675 58.3946 41.2844C50.0423 37.0025 36.4619 47.5413 50.6218 64.329C47.7962 69.7083 45.4438 75.3233 43.5911 81.1102C41.5704 92.0073 54.3749 98.9057 64.5422 77.9265ZM54.8725 62.36C56.7415 64.0309 55.056 65.1663 52.4233 71.4015C50.6307 75.5386 45.6593 84.9787 49.7561 86.5987C54.4509 88.4479 60.8678 74.6175 61.8773 73.0452C62.0554 72.7389 62.2981 72.4752 62.5885 72.2722C62.8789 72.0692 63.21 71.9319 63.5588 71.8698C63.9076 71.8077 64.2657 71.8223 64.6083 71.9127C64.9509 72.003 65.2697 72.1668 65.5426 72.3928C75.2507 80.9973 75.9793 81.1917 75.5372 82.9665C74.8757 85.6483 73.756 88.613 74.4562 91.0057C74.5288 91.2587 74.6614 91.4905 74.8427 91.6814C75.0241 91.8722 75.2488 92.0165 75.4979 92.102C75.7469 92.1874 76.0128 92.2115 76.2732 92.1722C76.5335 92.1329 76.7805 92.0314 76.9932 91.8762C78.8171 89.8225 79.9965 87.2775 80.3846 84.5583C81.4232 80.643 90.8818 85.1431 90.829 81.1794C90.7761 77.2158 79.9766 78.7782 78.3536 76.2162C68.7941 60.7524 68.5191 63.0501 81.5775 60.0096C94.1528 57.2907 89.3086 51.5552 77.921 52.3076C68.0462 53.0411 64.9727 55.218 63.3301 53.1375C59.1062 47.7577 56.3917 42.4364 50.8954 46.3576C44.1086 50.8837 48.8387 56.855 54.8725 62.36Z" fill="white"/>
</g>
</g>
<g clip-path="url(#clip2_1825_41599)">
<g clip-path="url(#clip3_1825_41599)">
<path d="M348.919 65.2419C347.67 63.5516 347.898 62.5908 343.525 61.5986C341.845 61.4547 340.161 61.8151 338.687 62.6336C337.214 63.452 336.018 64.6915 335.252 66.1934C334.607 67.306 334.313 68.5878 334.409 69.8705C334.506 71.1531 334.988 72.3766 335.792 73.3803C336.988 74.4878 338.477 75.2269 340.083 75.5092C341.688 75.7914 343.34 75.6048 344.842 74.9717C346.388 74.5191 347.736 73.5583 348.668 72.2446C349.6 70.931 350.062 69.3414 349.978 67.7328C349.834 66.8283 349.471 65.973 348.919 65.2419ZM343.297 71.14C342.579 71.4506 341.788 71.5504 341.016 71.4276C340.244 71.3049 339.523 70.9647 338.938 70.447C338.088 69.5697 338.571 68.2466 339.255 67.1404C339.939 66.0342 341.475 64.3684 342.893 64.4502C343.545 64.5235 344.171 64.752 344.717 65.1166C345.263 65.4811 345.714 65.9711 346.032 66.5456C346.349 66.9856 346.52 67.5139 346.52 68.056C346.711 69.7498 345.087 70.7182 343.457 71.1779L343.297 71.14Z" fill="white"/>
<path d="M320.259 80.6108C319.01 78.9205 319.237 77.9598 314.825 76.9581C313.151 76.8233 311.474 77.189 310.008 78.0087C308.542 78.8285 307.353 80.0654 306.592 81.5623C305.905 82.6885 305.585 83.9998 305.675 85.3157C305.765 86.6315 306.261 87.8871 307.094 88.9094C308.29 90.0168 309.779 90.756 311.384 91.0382C312.99 91.3205 314.642 91.1339 316.144 90.5008C317.69 90.0481 319.038 89.0873 319.97 87.7737C320.902 86.4601 321.363 84.8704 321.28 83.2619C321.174 82.305 320.822 81.3919 320.259 80.6108ZM314.636 86.509C313.919 86.8195 313.128 86.9193 312.356 86.7966C311.584 86.6738 310.863 86.3337 310.277 85.8159C309.428 84.9387 309.91 83.6155 310.595 82.5093C311.279 81.4031 312.775 79.7279 314.232 79.8192C314.877 79.8975 315.494 80.1274 316.033 80.49C316.571 80.8525 317.017 81.3374 317.332 81.9051C317.66 82.3455 317.844 82.8761 317.86 83.425C318.051 85.1187 316.547 86.1156 314.797 86.5468L314.636 86.509Z" fill="white"/>
<path d="M370.178 69.7211C368.868 67.9317 369.076 67.0511 364.753 66.0283C363.073 65.8951 361.392 66.2658 359.924 67.093C358.455 67.9203 357.267 69.1666 356.511 70.6725C355.829 71.7935 355.512 73.0986 355.603 74.4075C355.695 75.7164 356.191 76.9646 357.023 77.9796C358.202 79.115 359.692 79.873 361.305 80.1565C362.917 80.44 364.577 80.2361 366.072 79.571C367.618 79.1184 368.966 78.1575 369.898 76.8439C370.83 75.5303 371.292 73.9406 371.209 72.3321C371.1 71.3864 370.744 70.486 370.178 69.7211ZM364.556 75.6192C363.838 75.9298 363.047 76.0295 362.275 75.9068C361.503 75.7841 360.782 75.4439 360.197 74.9261C359.347 74.0489 359.839 72.6857 360.523 71.5795C361.208 70.4733 362.703 68.7981 364.151 68.9294C365.104 68.9958 366.004 69.3917 366.697 70.0492C367.39 70.7068 367.833 71.5849 367.949 72.533C367.97 74.2289 366.356 75.1574 364.716 75.6571L364.556 75.6192Z" fill="white"/>
<path d="M341.518 85.0909C340.269 83.4005 340.497 82.4398 336.093 81.3981C334.408 81.23 332.713 81.5858 331.238 82.4169C329.763 83.2481 328.58 84.5141 327.851 86.0423C327.163 87.1614 326.842 88.4676 326.934 89.778C327.026 91.0883 327.525 92.3371 328.363 93.3494C329.547 94.4801 331.041 95.2318 332.655 95.5081C334.269 95.7845 335.929 95.573 337.422 94.9008C338.968 94.4481 340.316 93.4873 341.248 92.1737C342.18 90.86 342.641 89.2704 342.558 87.6618C342.44 86.7292 342.081 85.8433 341.518 85.0909ZM335.896 90.989C335.178 91.2996 334.387 91.3993 333.615 91.2766C332.843 91.1538 332.122 90.8137 331.537 90.2959C330.647 89.4092 331.179 88.0555 331.863 86.9493C332.548 85.8431 334.043 84.1679 335.491 84.2992C336.134 84.3719 336.75 84.595 337.291 84.9504C337.831 85.3059 338.28 85.7837 338.6 86.3451C338.928 86.7855 339.113 87.3161 339.129 87.865C339.27 89.5893 337.648 90.7273 336.056 91.0269L335.896 90.989Z" fill="white"/>
<path d="M388.217 74.4112C386.978 72.6808 387.156 71.7506 382.792 70.7184C381.107 70.5503 379.412 70.9061 377.937 71.7372C376.462 72.5684 375.279 73.8345 374.55 75.3627C373.862 76.4817 373.541 77.7879 373.633 79.0983C373.725 80.4086 374.224 81.6574 375.061 82.6697C376.24 83.8051 377.731 84.5631 379.344 84.8466C380.956 85.1301 382.616 84.9262 384.111 84.2611C385.657 83.8085 387.005 82.8476 387.937 81.534C388.869 80.2204 389.331 78.6308 389.248 77.0222C389.139 76.0765 388.783 75.1761 388.217 74.4112ZM382.595 80.3093C381.877 80.6199 381.086 80.7196 380.314 80.5969C379.542 80.4742 378.821 80.134 378.236 79.6162C377.346 78.7295 377.878 77.3758 378.562 76.2696C379.247 75.1634 380.742 73.4882 382.19 73.6195C383.109 73.719 383.967 74.1249 384.627 74.7717C385.287 75.4186 385.71 76.2688 385.828 77.1853C385.889 78.8906 384.395 79.8475 382.774 80.2671L382.595 80.3093Z" fill="white"/>
<path d="M356.755 86.7935C355.081 86.6587 353.405 87.0244 351.939 87.8441C350.473 88.6639 349.284 89.9008 348.522 91.3977C347.836 92.5239 347.515 93.8353 347.605 95.1511C347.695 96.4669 348.191 97.7225 349.024 98.7448C350.225 99.8433 351.715 100.577 353.318 100.858C354.921 101.14 356.571 100.959 358.074 100.336C359.62 99.8836 360.968 98.9227 361.9 97.6091C362.832 96.2955 363.294 94.7058 363.211 93.0973C362.93 91.5031 362.156 90.0373 360.998 88.9063C359.839 87.7754 358.356 87.0364 356.755 86.7935ZM356.727 96.3823C356.01 96.6928 355.219 96.7926 354.447 96.6699C353.675 96.5471 352.954 96.2069 352.368 95.6892C351.519 94.812 352.001 93.4888 352.695 92.3426C353.389 91.1964 354.905 89.6107 356.323 89.6925C356.966 89.7651 357.582 89.9882 358.122 90.3437C358.662 90.6992 359.111 91.177 359.432 91.7384C359.751 92.1834 359.934 92.7113 359.96 93.2582C360.01 94.834 358.424 95.6424 356.755 96.2622L356.727 96.3823Z" fill="white"/>
<path d="M373.086 39.3819C371.916 42.31 371.513 45.4885 371.916 48.616C372.306 50.195 373.261 51.5767 374.599 52.5007C375.938 53.4247 377.568 53.8272 379.183 53.6323C380.252 53.6266 381.302 53.3524 382.237 52.835C383.172 52.3175 383.961 51.5734 384.534 50.671C385.72 48.5796 386.519 46.2914 386.892 43.9163L387.214 42.5553L388.275 38.0719C388.545 37.1997 388.621 36.2794 388.499 35.3747C388.378 34.47 388.061 33.6026 387.57 32.8327C385.779 30.8801 383.314 29.678 380.673 29.4679C380.503 29.4219 380.325 29.4107 380.15 29.4348C379.975 29.4589 379.807 29.5179 379.656 29.6082C379.504 29.6985 379.373 29.8184 379.268 29.9606C379.164 30.1029 379.089 30.2647 379.049 30.4363C379.009 30.1663 378.875 29.9191 378.669 29.739C378.464 29.5588 378.202 29.4574 377.929 29.4528C377.65 29.4641 377.378 29.5446 377.138 29.687C376.898 29.8293 376.696 30.0291 376.552 30.2684C375.982 31.613 375.552 33.0127 375.268 34.4453L374.13 36.7546C373.71 37.5999 373.361 38.4787 373.086 39.3819ZM376.797 38.5267C376.797 38.5267 379.199 31.2326 379.265 30.9524C379.31 31.2119 379.43 31.4525 379.609 31.6451C379.789 31.8377 380.021 31.9739 380.276 32.0371C383.879 32.8894 385.239 33.9298 385.308 35.4256C384.836 38.0032 384.057 40.5152 382.988 42.9082C382.633 44.4605 382.092 45.9647 381.379 47.3885C380.872 48.2829 380.284 49.1584 379.226 49.1619C378.794 49.2464 378.348 49.2333 377.921 49.1237C377.495 49.0141 377.098 48.8106 376.76 48.5281C376.421 48.2456 376.15 47.8912 375.967 47.4908C375.783 47.0903 375.691 46.6539 375.697 46.2134C375.641 43.6083 376.013 41.0117 376.797 38.5267Z" fill="white"/>
<path d="M344.518 31.3127C344.423 31.713 344.609 32.1796 346.132 32.709C348.374 33.2393 349.164 34.1872 352.208 35.0765L357.252 36.2697L362.256 37.4535C365.018 38.1069 366.756 38.2645 369.605 38.7272C370.926 39.0397 372.573 36.724 370.916 35.867C367.902 35.0272 365.944 34.0144 362.862 33.2852L354.856 31.3912C352.382 30.7974 349.874 30.3593 347.346 30.0795C345.636 29.8019 344.62 30.7028 344.518 31.3127Z" fill="white"/>
<path d="M401.878 47.0395C400.875 45.2503 399.335 43.8214 397.476 42.9546C395.74 42.0264 393.865 41.3831 391.925 41.0494C388.988 40.7773 389.284 42.9187 390.765 43.2691C392.11 43.573 393.424 43.9971 394.693 44.5364C396.656 45.1514 398.317 46.4794 399.35 48.2588C399.84 50.3505 399.888 52.5214 399.49 54.6327C399.152 57.8497 398.516 61.9685 397.665 66.4592C391.78 65.0671 380.085 61.7931 366.892 58.4183L353.322 55.2079L339.751 51.9976C325.392 48.7274 312.829 46.2625 308.868 45.4946C310.272 39.4491 312.314 33.57 314.962 27.9567C315.527 27.327 316.247 26.8572 317.052 26.5948C317.856 26.3323 318.715 26.2865 319.543 26.4619C321.301 26.4507 323.051 26.694 324.74 27.1842C324.975 27.1988 325.21 27.138 325.408 27.0107C325.607 26.8834 325.76 26.6961 325.845 26.476C325.93 26.2559 325.942 26.0145 325.881 25.7867C325.82 25.5589 325.687 25.3565 325.503 25.209C323.15 24.0852 320.584 23.4781 317.978 23.4286C316.939 23.4326 315.916 23.6746 314.986 24.1361C314.056 24.5976 313.244 25.2663 312.613 26.0908C310.181 29.4042 303.769 49.3607 299.868 67.4594C297.051 80.6155 295.838 92.7137 297.886 96.9182C299.402 99.982 304.585 102.73 311.418 104.938C322.096 108.225 336.79 110.433 344.236 112.195C353.516 114.703 362.949 116.61 372.475 117.903C376.758 118.532 381.124 118.3 385.317 117.222C386.621 116.558 387.647 115.452 388.211 114.102C391.581 106.219 394.197 98.0342 396.023 89.6577C400.266 71.7243 403.699 50.5983 401.878 47.0395ZM386.237 108.689C385.598 110.393 384.747 112.01 383.704 113.5C378.781 114.316 373.747 114.187 368.872 113.12C359.325 111.664 349.083 108.861 345.24 107.952C337.874 106.209 323.29 104.069 312.674 100.881C307.225 99.2542 302.794 97.6142 301.587 95.215C299.613 91.4087 300.999 80.3659 303.452 68.3918C304.804 61.4867 306.398 54.6311 308.23 47.8374C312.233 48.7844 324.29 52.3133 338.795 56.0406L352.365 59.251L365.935 62.4613C379.322 65.3747 391.256 67.8176 397.139 69.0401C396.192 73.0431 395.322 77.6138 394.08 81.9698C392.021 91.03 389.402 99.9536 386.237 108.689Z" fill="white"/>
<path d="M327.96 28.58C326.894 31.7125 326.441 35.0211 326.627 38.3249C327.018 39.904 327.972 41.2856 329.311 42.2097C330.649 43.1337 332.28 43.5362 333.895 43.3413C334.97 43.3471 336.029 43.0793 336.972 42.5628C337.915 42.0464 338.711 41.2985 339.285 40.3895C340.502 38.282 341.309 35.9628 341.663 33.5547L342.667 29.3115L343.045 27.7103C343.309 26.8374 343.383 25.918 343.261 25.0142C343.14 24.1103 342.826 23.2431 342.34 22.4711C340.56 20.5025 338.098 19.2852 335.453 19.0662C335.102 18.9834 334.733 19.043 334.427 19.2322C334.121 19.4213 333.902 19.7244 333.819 20.0747C333.779 19.8046 333.645 19.5575 333.44 19.3773C333.235 19.1972 332.972 19.0958 332.699 19.0912C332.42 19.1025 332.148 19.183 331.908 19.3254C331.668 19.4677 331.467 19.6675 331.323 19.9068C330.711 21.1504 330.22 22.4496 329.855 23.7867L328.913 25.8041L328.667 26.8449L327.96 28.58ZM331.518 28.1957C331.518 28.1957 333.91 20.9416 333.986 20.6214C334.018 20.8888 334.131 21.1401 334.31 21.3412C334.489 21.5424 334.726 21.6837 334.988 21.7461C338.59 22.5984 339.951 23.6388 340.019 25.1345C339.533 27.7107 338.741 30.2195 337.66 32.6077C337.297 34.1579 336.757 35.6612 336.05 37.088C335.592 37.9519 335.005 38.8274 333.947 38.8308C333.515 38.9153 333.069 38.9023 332.642 38.7926C332.215 38.683 331.818 38.4795 331.48 38.197C331.142 37.9145 330.871 37.5602 330.687 37.1597C330.504 36.7593 330.411 36.3229 330.418 35.8823C330.354 33.2768 330.726 30.6789 331.518 28.1957Z" fill="white"/>
</g>
</g>
<g clip-path="url(#clip4_1825_41599)">
<path fill-rule="evenodd" clip-rule="evenodd" d="M205.375 89.8565H193.825C191.593 89.8565 187.568 89.8565 184.068 89.5065C182.308 89.4395 180.599 88.8951 179.125 87.9315C177.846 86.1693 177.116 84.0692 177.025 81.894C176.704 78.1821 176.704 74.4496 177.025 70.7377C177.375 64.2627 178.337 50.219 179.081 37.794C179.65 27.7315 180.087 18.7627 180.131 15.7002C180.115 14.2324 180.247 12.7667 180.525 11.3252C180.667 10.2839 181.143 9.31677 181.881 8.56897C183.174 7.62085 184.673 6.99129 186.256 6.73147C186.562 8.78772 187.393 12.2877 188.137 15.0877C188.373 16.722 188.845 18.3136 189.537 19.8127C191.177 20.6938 192.951 21.2997 194.787 21.6065C198.331 22.3502 203.056 23.0065 205.331 23.269C208.243 23.4954 211.169 23.4954 214.081 23.269C216.171 23.1557 218.233 22.7432 220.206 22.044C221.666 21.2501 222.832 20.0076 223.531 18.5002C225.287 14.5294 226.749 10.4351 227.906 6.25022C229.324 6.82483 230.51 7.85646 231.275 9.18147C231.815 10.1155 232.269 11.0966 232.631 12.1127C233.024 13.132 233.317 14.187 233.506 15.2627C234.11 19.3922 234.432 23.5582 234.468 27.7315C234.468 34.5127 234.468 41.6877 234.075 46.8065C234.037 47.0262 234.048 47.2515 234.107 47.4666C234.165 47.6817 234.27 47.8814 234.414 48.0518C234.557 48.2221 234.737 48.3591 234.939 48.453C235.141 48.547 235.361 48.5956 235.584 48.5956C235.807 48.5956 236.027 48.547 236.229 48.453C236.432 48.3591 236.611 48.2221 236.754 48.0518C236.898 47.8814 237.003 47.6817 237.062 47.4666C237.12 47.2515 237.131 47.0262 237.093 46.8065C237.575 41.644 237.925 34.3815 237.925 27.469C237.969 23.0836 237.735 18.6998 237.225 14.344C237.022 13.038 236.715 11.7505 236.306 10.494C235.865 9.24213 235.323 8.0278 234.687 6.86272C233.697 5.0013 232.174 3.47791 230.312 2.48772C227.627 1.44744 224.733 1.05764 221.868 1.35022L195.531 1.00022C192.101 0.863435 188.667 1.11292 185.293 1.74397C182.751 2.17203 180.35 3.20762 178.293 4.76272C176.957 5.91972 175.984 7.43938 175.493 9.13772C174.951 11.237 174.7 13.4012 174.75 15.569L172.606 70.5627C172.374 75.2075 172.697 79.8634 173.568 84.4315C173.972 86.68 175.021 88.7626 176.587 90.4252C178.207 91.6097 180.139 92.2941 182.143 92.394C186.049 92.6046 189.963 92.6046 193.868 92.394H205.375C205.57 92.4295 205.771 92.4217 205.963 92.371C206.155 92.3204 206.334 92.2281 206.486 92.1009C206.639 91.9736 206.762 91.8143 206.846 91.6344C206.93 91.4545 206.974 91.2582 206.974 91.0596C206.974 90.8609 206.93 90.6647 206.846 90.4848C206.762 90.3049 206.639 90.1456 206.486 90.0183C206.334 89.8911 206.155 89.7988 205.963 89.7482C205.771 89.6975 205.57 89.6897 205.375 89.7252V89.8565ZM195.4 5.90022L221.868 5.59397H224.843C224.143 7.47522 222.831 10.669 221.475 13.5127C219.331 17.8877 220.643 18.369 213.862 18.544C211.189 18.5963 208.515 18.4794 205.856 18.194L192.25 16.7065C191.291 14.6088 190.444 12.4621 189.712 10.2752C189.237 8.96954 188.828 7.64078 188.487 6.29397C190.779 5.99946 193.089 5.86788 195.4 5.90022Z" fill="white"/>
<path fill-rule="evenodd" clip-rule="evenodd" d="M262.25 52.8441C260.255 51.6855 257.911 51.2819 255.643 51.7066C251.793 52.1789 247.988 52.9691 244.268 54.0691C239.207 55.6316 234.24 57.4868 229.393 59.6253C224.513 61.7958 219.854 64.433 215.481 67.5003C212.941 69.2999 210.772 71.5727 209.093 74.1941C208.61 74.9202 208.303 75.7493 208.196 76.6152C208.09 77.4812 208.188 78.36 208.481 79.1816C208.971 80.3432 209.812 81.3224 210.887 81.9816C212.231 82.8087 213.713 83.3867 215.262 83.6878L226.243 86.2253V86.7503C226.243 88.5878 225.981 91.7378 225.981 94.4503C225.916 96.3094 226.033 98.1703 226.331 100.007C226.626 101.479 227.347 102.832 228.405 103.898C229.463 104.964 230.811 105.695 232.281 106C234.344 106.101 236.405 105.763 238.328 105.009C240.251 104.255 241.993 103.102 243.437 101.625C246.884 98.1579 249.829 94.2262 252.187 89.9441C255.708 83.683 258.807 77.1935 261.462 70.5191C263.075 66.8969 264.024 63.0143 264.262 59.0566C264.369 57.9385 264.245 56.8105 263.899 55.742C263.553 54.6736 262.992 53.6873 262.25 52.8441ZM259.45 60.2816C259.071 63.1143 258.305 65.8817 257.175 68.5066C254.721 75.0464 251.872 81.4311 248.643 87.6253C246.558 91.6461 243.922 95.3567 240.812 98.6503C239.062 100.531 236.767 101.816 234.25 102.325C233.166 102.473 232.066 102.209 231.167 101.585C230.268 100.961 229.635 100.024 229.393 98.9566C229.174 97.5082 229.057 96.0463 229.043 94.5816V87.1441C229.065 86.88 229.015 86.6151 228.9 86.3767C228.784 86.1383 228.607 85.935 228.387 85.7878C228.468 85.4459 228.412 85.0861 228.233 84.7841C228.053 84.4822 227.764 84.2617 227.425 84.1691L215.875 81.0628C214.882 80.8289 213.925 80.461 213.031 79.9691C212.318 79.6081 211.759 79.0023 211.456 78.2628C211.106 77.3878 211.806 76.4253 212.593 75.4628C213.993 73.7456 215.663 72.2679 217.537 71.0878C221.813 68.3466 226.34 66.0174 231.056 64.1316C235.803 62.217 240.652 60.5666 245.581 59.1878C248.029 58.5018 250.512 57.9468 253.018 57.5253C257.612 56.3878 259.843 54.7253 259.318 60.2816H259.45Z" fill="white"/>
</g>
<defs>
<clipPath id="clip0_1825_41599">
<rect width="109.416" height="109.416" fill="white" transform="translate(0.952148 25.7432) rotate(-13.3074)"/>
</clipPath>
<clipPath id="clip1_1825_41599">
<rect width="87.2665" height="87.2665" fill="white" transform="translate(61.0808 128.375) rotate(-128.685)"/>
</clipPath>
<clipPath id="clip2_1825_41599">
<rect width="97.2586" height="97.2586" fill="white" transform="translate(314.235 10.7822) rotate(13.31)"/>
</clipPath>
<clipPath id="clip3_1825_41599">
<rect width="98.724" height="98.724" fill="white" transform="translate(313.664 8.96777) rotate(13.31)"/>
</clipPath>
<clipPath id="clip4_1825_41599">
<rect width="105" height="105" fill="white" transform="translate(166 1)"/>
</clipPath>
</defs>
</svg>
