<svg width="394" height="139" viewBox="0 0 394 139" fill="none" xmlns="http://www.w3.org/2000/svg">
<g clip-path="url(#clip0_1825_41513)">
<path d="M95.2828 102.153C90.1039 98.9657 86.041 94.2508 83.6541 88.6578C80.0787 78.8569 77.3333 68.7728 75.4468 58.5121C75.3198 58.2216 75.0949 57.9849 74.8112 57.8432C74.5276 57.7016 74.2032 57.6639 73.8947 57.7369C73.5862 57.8099 73.313 57.9888 73.1229 58.2426C72.9328 58.4963 72.8377 58.8087 72.8543 59.1253C74.4744 69.6746 76.935 80.0775 80.2125 90.2347C81.4309 93.1218 82.9397 95.8774 84.7158 98.4591C86.6515 100.722 88.848 102.748 91.2595 104.495C84.6149 110.555 59.3956 114.545 51.5703 115.992C44.69 117.261 42.8341 119.091 40.4077 114.145C35.7823 102.294 32.3649 90.0069 30.2073 77.4698C29.8302 72.632 28.9249 67.8501 27.5074 63.2093C26.6772 61.0272 24.7185 62.6124 25.2906 64.2721C26.0248 73.9589 27.4314 83.583 29.5003 93.0746C31.3667 101.398 33.8546 109.571 36.9433 117.522C37.6388 119.029 38.7746 120.29 40.201 121.138C41.6274 121.986 43.2773 122.382 44.9334 122.274C47.4262 122.081 49.8999 121.691 52.3314 121.108C62.9187 119.63 73.3629 117.265 83.5537 114.037C89.7476 111.764 100.069 106.451 95.2828 102.153Z" fill="white"/>
<path d="M32.1723 62.062C39.4397 60.3431 69.8732 54.4911 75.9465 51.7083C76.6734 51.3675 77.2923 50.8329 77.7351 50.1633C78.8365 47.8769 79.3822 45.3627 79.328 42.8254C79.2738 40.2882 78.6211 37.7996 77.423 35.5624C73.3388 28.5403 66.2514 30.2616 58.2191 32.1614C50.1867 34.0613 42.1452 36.6814 36.4325 37.7633C30.7198 38.8453 22.7478 41.0001 22.4078 41.0805C15.9996 41.8782 9.88504 47.9019 9.84445 60.2526C10.5805 70.4786 11.9082 80.6534 13.821 90.7258C16.0364 101.176 18.7937 111.503 22.0818 121.667C22.2993 121.966 22.6181 122.176 22.979 122.259C23.3399 122.341 23.7183 122.289 24.0441 122.113C24.3698 121.938 24.6207 121.65 24.7502 121.303C24.8797 120.956 24.879 120.574 24.7483 120.228C20.9353 106.427 18.2486 92.3397 16.7146 78.1042C15.8941 69.3229 12.7966 57.1759 17.0965 49.7415C17.608 48.5291 18.4204 47.4673 19.457 46.6567C20.4935 45.8461 21.7198 45.3135 23.0197 45.1094C24.3197 44.9053 25.6502 45.0364 26.8853 45.4903C28.1204 45.9443 29.2191 46.7059 30.0775 47.7033C31.1281 49.3704 31.6605 51.3118 31.6071 53.2816C31.5538 55.2514 30.9172 57.1612 29.7778 58.769C29.2733 59.2922 29.1023 62.7433 32.1723 62.062ZM32.6929 45.2896C30.0087 42.2895 28.6386 42.5686 29.2336 42.4279C32.1661 41.7343 35.0939 41.4008 36.7491 41.1888C44.93 40.1065 60.609 35.8146 68.1656 35.5082C69.3768 35.4291 70.578 35.7729 71.5639 36.481C72.5498 37.189 73.2594 38.2173 73.5715 39.3904C76.6777 48.349 71.7685 47.8947 70.3212 48.4165C61.2451 51.5954 42.231 56.5864 32.9314 59.0104C34.2058 56.9392 34.857 54.545 34.8072 52.1137C34.7573 49.6824 34.0086 47.3168 32.6504 45.2997L32.6929 45.2896Z" fill="white"/>
<path d="M46.7332 68.2204C45.2988 70.0961 44.1415 72.1683 43.297 74.3735C41.5018 78.9267 41.9656 79.9389 40.4773 79.5281C40.2387 79.4103 39.9787 79.3422 39.7131 79.3279C39.4474 79.3136 39.1816 79.3534 38.9318 79.4449C36.3233 81.3184 42.0144 85.2678 44.8669 82.5287C48.8821 77.4952 47.7795 73.403 49.1707 69.7979C49.2912 69.4804 49.2992 69.1311 49.1934 68.8084C49.0876 68.4857 48.8744 68.209 48.5892 68.0244C48.3041 67.8399 47.9643 67.7587 47.6266 67.7943C47.2888 67.83 46.9735 67.9804 46.7332 68.2204Z" fill="white"/>
<path d="M59.0631 78.2294C61.8887 77.4818 64.6724 76.5838 67.4021 75.539C67.7853 75.4484 68.1169 75.2092 68.3237 74.8741C68.5306 74.539 68.5959 74.1355 68.5053 73.7523C68.1979 69.6065 51.6396 74.7347 51.8872 76.92C52.1348 79.1052 58.363 78.3053 59.0631 78.2294Z" fill="white"/>
<path d="M50.244 89.5158C48.6412 93.9338 47.6824 95.1927 46.1377 100.046C45.7409 100.066 45.343 100.04 44.9523 99.9671C44.8473 99.8243 44.7145 99.7043 44.5618 99.6143C44.409 99.5243 44.2397 99.4662 44.0639 99.4436C43.8881 99.421 43.7095 99.4343 43.539 99.4826C43.3685 99.531 43.2095 99.6135 43.0718 99.7251C42.9341 99.8367 42.8205 99.9751 42.7378 100.132C42.6551 100.289 42.6051 100.461 42.5907 100.637C42.5764 100.814 42.5981 100.992 42.6545 101.16C42.7109 101.328 42.8007 101.483 42.9187 101.615C43.7578 102.709 44.8576 103.575 46.1175 104.134C51.071 106.104 52.7339 95.2993 53.1805 90.1675C53.2669 89.7781 53.1951 89.3703 52.9809 89.0338C52.7666 88.6974 52.4275 88.4598 52.0381 88.3734C51.6487 88.2869 51.2409 88.3587 50.9044 88.573C50.568 88.7872 50.3304 89.1263 50.244 89.5158Z" fill="white"/>
<path d="M73.1566 95.3161C73.3526 94.9709 73.4107 94.5644 73.3193 94.1781C73.228 93.7919 72.9939 93.4545 72.6641 93.2336C71.47 92.1697 66.7897 92.8729 65.7797 93.1566C62.7538 94.0783 59.847 95.3533 57.1194 96.9552C56.8027 97.7033 56.7109 98.2635 57.2464 98.6305C57.782 98.9975 56.7542 99.0162 63.3333 98.941C66.6973 97.9906 69.9817 96.7786 73.1566 95.3161Z" fill="white"/>
<path d="M105.449 25.7914C101.152 18.8196 92.0796 25.0493 90.2072 29.8452C89.8735 30.7345 89.806 31.7017 90.0129 32.6287C83.3067 35.2022 85.6196 45.7397 87.0301 52.2722C89.5491 61.5942 89.8748 64.2995 91.6621 63.6973C93.4493 63.095 92.62 61.6756 91.5953 51.4617C90.5706 41.2478 89.0046 38.6114 90.7791 35.6786C91.1191 35.5982 95.2122 54.4207 96.4619 56.0997C96.38 60.876 100.963 83.6665 102.123 89.8993C102.333 92.0501 102.746 94.1763 103.356 96.2495C105.182 99.6771 108.218 102.302 111.874 103.614C114.82 104.308 115.842 101.419 116.303 99.3802C117.995 95.9908 118.383 92.0981 117.395 88.4411C115.043 78.4963 116.487 85.739 109.721 52.2007C110.009 49.5339 109.886 46.8386 109.356 44.2091C108.592 38.511 107.691 29.3897 105.449 25.7914ZM94.6407 31.8931C95.495 30.5426 96.6888 29.4401 98.1029 28.6957C100.297 27.7279 100.332 27.4953 100.968 28.2873C101.477 28.9781 101.858 29.7542 102.094 30.5791C103.873 37.3921 105.253 44.3032 106.226 51.2771C105.844 51.3675 105.202 51.8784 104.947 51.9387L98.5719 53.4466C97.6914 51.052 98.9433 56.7245 94.6407 31.8931ZM111.552 98.0804C110.116 97.1383 108.902 95.8937 107.997 94.4336C105.703 83.2184 100.467 66.0126 99.0608 56.6518C101.734 56.2892 104.38 55.7532 106.983 55.0471L111.208 81.8266C113.538 93.5719 113.653 91.9739 111.512 97.9104L111.552 98.0804Z" fill="white"/>
</g>
<g clip-path="url(#clip1_1825_41513)">
<path d="M303.471 62.2825C306.136 63.0888 308.924 63.4106 311.703 63.2328C311.892 63.2577 312.084 63.2415 312.266 63.1851C312.448 63.1288 312.616 63.0338 312.758 62.9065C312.899 62.7792 313.012 62.6227 313.088 62.4478C313.163 62.2729 313.2 62.0837 313.195 61.8932C313.191 61.7027 313.145 61.5155 313.062 61.3443C312.978 61.1732 312.858 61.0222 312.71 60.9017C312.563 60.7812 312.391 60.6941 312.206 60.6464C312.022 60.5987 311.829 60.5915 311.642 60.6253C309.193 60.7306 306.744 60.421 304.399 59.7097C302.984 59.3428 301.767 58.4398 301.005 57.1916C299.818 52.6195 299.88 47.8122 301.187 43.2726C301.759 39.975 302.836 36.7853 304.381 33.8163C304.868 32.8274 305.66 32.0216 306.64 31.5185C310.587 30.1785 328.759 33.7992 346.631 38.3465C357.343 40.8907 367.874 44.1418 378.156 48.0783C380.377 48.7287 382.425 49.8673 384.149 51.4109C385.606 55.4538 385.44 59.9039 383.685 63.8268C382.664 68.0587 380.285 71.8394 376.911 74.5903C374.955 75.6037 370.082 74.4509 364.265 73.0746C351.118 69.9645 333.845 64.4021 331.495 64.7238C329.403 65.1327 327.393 65.8835 325.544 66.946C322.252 68.7203 318.677 71.1855 316.202 72.714C315.79 72.9358 315.463 73.1376 315.154 73.264C315.095 73.075 315.061 72.8792 315.052 72.6815C315.043 69.6191 315.234 66.5594 315.624 63.522C315.88 61.4285 313.61 61.4101 313.36 62.4679C313.11 63.5256 312.999 65.1748 312.807 67.164C312.452 69.6257 312.411 72.1226 312.685 74.5946C312.724 75.0075 312.908 75.3932 313.205 75.6827C313.502 75.9722 313.892 76.1466 314.306 76.1748C315.59 76.0028 316.823 75.5603 317.924 74.8766C320.767 73.3152 325.062 70.5019 328.667 68.9214C329.689 68.4359 330.776 68.1017 331.894 67.9295C334.47 67.6615 355.237 75.4865 368.142 78.1006C371.623 79.0945 375.304 79.1678 378.822 78.3136C383.308 75.1382 386.56 70.5099 388.025 65.2125C389.104 62.7052 389.678 60.0099 389.714 57.2806C389.751 54.5513 389.249 51.8416 388.237 49.3064C386.453 47.1596 384.123 45.5335 381.493 44.5992C373.156 41.1409 364.568 38.3224 355.803 36.1681C334.811 30.6435 310.221 26.5015 305.497 28.2562C302.675 29.2242 300.118 33.9645 298.739 39.6221C297.033 46.8374 296.831 55.4461 298.641 58.5868C299.732 60.3798 301.455 61.6985 303.471 62.2825Z" fill="white"/>
<path d="M352.942 115.034L352.674 116.167C351.581 119.152 350.28 122.056 348.782 124.86L348.197 123.963C346.632 121.639 344.588 117.804 342.429 114.621C341.275 112.779 339.811 111.151 338.102 109.808C334.263 108.441 330.285 107.5 326.24 107.001C318.294 105.52 307.782 103.752 300.374 101.68C297.662 101.234 295.089 100.175 292.849 98.5832C291.089 96.4116 290.733 90.663 291.416 85.0802C291.501 80.3218 293.405 75.7766 296.735 72.3767C297.518 71.9868 298.386 71.7947 299.261 71.8174C300.894 71.7133 302.533 71.7146 304.166 71.8212C304.525 71.8471 304.879 71.73 305.151 71.4954C305.424 71.2607 305.592 70.9277 305.619 70.5693C305.625 70.2181 305.499 69.8775 305.265 69.6152C305.032 69.353 304.708 69.1883 304.358 69.154C302.312 68.9531 300.252 68.9194 298.199 69.0532C297.109 69.0991 296.044 69.3927 295.084 69.9119C291.367 72.3035 289.09 78.3868 287.907 84.5692C286.807 91.4096 287.583 98.4145 289.614 101.129C291.644 103.843 296.815 105.425 303.87 107.134C310.925 108.843 320.173 110.393 326.777 111.477C329.838 111.781 332.866 112.351 335.829 113.179C336.748 113.797 337.565 114.555 338.249 115.427C340.744 118.371 343.417 122.753 345.259 125.423C345.955 126.512 346.856 127.457 347.911 128.204C348.297 128.377 348.731 128.413 349.14 128.307C349.549 128.201 349.91 127.959 350.164 127.62C351.342 125.859 352.277 123.947 352.945 121.935C353.792 119.703 354.611 117.423 354.936 116.383L355.079 115.779C355.605 114.906 353.361 113.936 352.942 115.034Z" fill="white"/>
<path d="M378.18 87.0981C374.225 84.3889 369.814 82.4132 365.159 81.2652C355.216 78.3617 345.129 75.9753 334.938 74.1156C334.637 74.0445 334.321 74.0957 334.058 74.258C333.795 74.4202 333.608 74.6803 333.537 74.9808C333.466 75.2814 333.517 75.5979 333.679 75.8607C333.841 76.1235 334.101 76.3111 334.402 76.3822C343.393 78.5092 352.383 81.3142 359.748 83.7349C363.446 84.9685 366.898 86.2242 369.595 87.3011C371.537 87.909 373.367 88.827 375.016 90.0194C375.603 90.9409 375.877 92.027 375.799 93.1167C375.909 96.6389 375.507 100.158 374.604 103.565C373.852 107.045 372.627 110.406 370.964 113.554C370.477 114.73 369.642 115.73 368.571 116.418C367.279 116.92 365.865 117.017 364.516 116.696C361.973 116.101 359.505 115.222 357.158 114.077C356.804 114.052 356.455 114.168 356.186 114.4C355.918 114.632 355.753 114.961 355.728 115.315C355.702 115.668 355.818 116.018 356.051 116.286C356.283 116.554 356.612 116.719 356.965 116.744C359.139 117.924 361.422 118.892 363.781 119.633C365.735 120.133 367.793 120.051 369.701 119.398C372.728 118.239 376.401 111.649 378.401 104.543C379.526 100.788 380.086 96.8877 380.062 92.9685C380.129 90.8535 379.464 88.7802 378.18 87.0981Z" fill="white"/>
</g>
<g clip-path="url(#clip2_1825_41513)">
<path fill-rule="evenodd" clip-rule="evenodd" d="M208.934 109.588C202.024 110.443 195.048 110.592 188.112 110.032C186.022 109.853 184.019 109.111 182.313 107.881C180.607 106.651 179.261 104.979 178.415 103.041C175.436 95.1441 173.912 86.7585 173.919 78.2976C173.634 65.3436 173.998 52.3811 175.009 39.46C174.941 34.6518 175.155 29.8429 175.649 25.0583C175.927 22.2176 176.933 19.4968 178.566 17.1642C179.881 15.4508 181.681 14.182 183.724 13.5275C183.724 13.5275 183.951 13.5608 184.041 13.5741C183.988 15.4896 184.125 17.4051 184.448 19.292C184.7 20.6854 185.266 22.0005 186.102 23.1358C186.68 23.8412 187.428 24.3855 188.273 24.7177C189.709 25.2676 191.213 25.6148 192.744 25.7495C194.893 26.0172 197.061 26.1015 199.225 26.0015C202.344 25.8525 205.466 25.3764 208.592 25.1816C211.717 24.9868 214.892 25.407 217.891 24.8194C219.728 24.6644 221.465 23.9008 222.833 22.6473C223.764 21.5789 224.414 20.2916 224.724 18.9041C225.176 16.9321 225.471 14.927 225.606 12.9083C227.459 13.3587 229.164 14.2836 230.558 15.5942C231.952 16.9048 232.988 18.5569 233.566 20.3919C234.625 25.4752 235.211 30.6492 235.315 35.8462C235.543 43.4081 235.46 52.1402 235.275 59.688C235.244 59.8957 235.258 60.1074 235.315 60.309C235.372 60.5106 235.471 60.6976 235.605 60.8574C235.739 61.0172 235.905 61.1462 236.093 61.236C236.28 61.3257 236.484 61.3741 236.692 61.3779C236.899 61.3817 237.105 61.3409 237.296 61.258C237.487 61.1752 237.659 61.0523 237.8 60.8976C237.94 60.7428 238.047 60.5596 238.112 60.3603C238.178 60.1609 238.201 59.9499 238.179 59.7412C238.598 52.1809 238.778 43.4164 238.699 35.7828C238.802 30.3184 238.398 24.8578 237.492 19.473C236.846 16.8794 235.535 14.5062 233.69 12.5928C231.845 10.6794 229.531 9.29354 226.983 8.5751C216.709 5.19337 201.875 7.35985 194.24 7.40579C190.147 7.22377 186.047 7.66086 182.076 8.7026C179.158 9.66916 176.597 11.5108 174.735 13.9821C172.586 16.9817 171.228 20.4836 170.789 24.1564C170.305 29.1277 170.08 34.1204 170.114 39.1139C169.247 52.199 169.092 65.32 169.648 78.4176C169.846 87.3889 171.764 96.2304 175.295 104.452C176.09 106.296 177.272 107.942 178.76 109.275C180.249 110.608 182.007 111.597 183.914 112.173C189.558 114.032 197.623 113.254 209.062 112.178C209.407 112.15 209.728 111.987 209.957 111.724C210.185 111.461 210.304 111.118 210.286 110.768C210.258 110.432 210.101 110.12 209.849 109.899C209.596 109.678 209.268 109.567 208.934 109.588ZM194.316 12.2332C203.263 11.1156 212.293 10.878 221.279 11.5236L222.23 11.6634C221.993 13.191 221.677 14.7054 221.285 16.2005C221.101 17.2822 220.599 18.2838 219.845 19.0748C218.706 19.7552 217.383 20.052 216.068 19.9221C213.117 20.1893 209.949 19.7233 207.891 19.8881C204.428 20.1736 200.802 20.6223 197.256 20.8487C195.82 20.9775 194.379 21.0153 192.94 20.962L190.451 20.5959L188.958 20.3762C188.172 19.4483 187.65 18.3211 187.45 17.1149C187.128 15.6523 186.914 14.1673 186.809 12.672C189.301 12.3716 191.808 12.2251 194.316 12.2332Z" fill="white"/>
<path fill-rule="evenodd" clip-rule="evenodd" d="M221.32 46.1318C220.374 43.6903 218.762 41.5723 216.671 40.0237C212.647 37.5704 207.954 36.4708 203.264 36.8825C200.828 36.9741 198.443 37.6284 196.292 38.7953C194.141 39.9622 192.282 41.6106 190.856 43.6143C188.605 47.6202 187.607 52.2176 187.991 56.8002C188.246 61.2287 189.493 65.5375 191.639 69.4009C192.742 71.3527 194.018 73.1993 195.45 74.9182C197.571 77.4745 199.905 79.8287 202.227 82.2744C202.342 82.4019 202.48 82.5051 202.635 82.5782C202.789 82.6514 202.957 82.693 203.127 82.7007C203.298 82.7084 203.468 82.6821 203.629 82.6232C203.79 82.5644 203.937 82.4741 204.064 82.3576C204.19 82.2411 204.293 82.1007 204.366 81.9443C204.439 81.7879 204.48 81.6186 204.488 81.4461C204.497 81.2736 204.471 81.1013 204.413 80.939C204.356 80.7767 204.267 80.6276 204.152 80.5002C202.025 77.9896 199.794 75.5572 197.862 72.9816C196.575 71.3525 195.423 69.6191 194.417 67.7989C192.77 64.3642 191.917 60.5932 191.925 56.771C191.79 53.1293 192.723 49.525 194.605 46.4103C195.658 44.9857 197.03 43.8338 198.609 43.0496C200.187 42.2655 201.926 41.8716 203.682 41.9006C207.269 41.5291 210.877 42.3219 213.982 44.1638C215.72 45.4536 216.992 47.2824 217.607 49.3732C218.345 51.5918 218.628 53.9402 218.441 56.2761C218.085 59.9435 217.011 63.5052 215.281 66.7532C212.59 71.8417 209.331 76.6026 205.567 80.942C205.308 81.2389 205.177 81.6269 205.201 82.0207C205.226 82.4146 205.404 82.7819 205.697 83.042C205.99 83.3021 206.373 83.4336 206.763 83.4077C207.152 83.3817 207.516 83.2003 207.774 82.9034C211.92 78.544 215.548 73.7105 218.584 68.5016C220.796 64.9128 222.294 60.9236 222.993 56.7586C223.334 53.1274 222.758 49.471 221.32 46.1318Z" fill="white"/>
<path fill-rule="evenodd" clip-rule="evenodd" d="M213.034 53.7522C213.086 52.6822 212.908 51.6143 212.512 50.6222C212.115 49.6301 211.511 48.7375 210.739 48.006C209.968 47.2745 209.048 46.7216 208.043 46.3854C207.038 46.0492 205.973 45.9378 204.919 46.0589C203.072 46.0409 201.282 46.7168 199.896 47.9556C198.509 49.1943 197.625 50.9077 197.415 52.7639C196.947 60.9716 212.434 65.6814 213.034 53.7522ZM201.404 53.3039C201.628 52.5482 202.122 51.9025 202.788 51.4911C203.455 51.0798 204.247 50.9319 205.014 51.0761C207.395 50.9121 208.688 52.1778 208.77 53.8263C209.279 61.9908 200.479 57.7036 201.404 53.3039Z" fill="white"/>
</g>
<defs>
<clipPath id="clip0_1825_41513">
<rect width="104.812" height="104.812" fill="white" transform="translate(0.818848 36.1357) rotate(-13.3074)"/>
</clipPath>
<clipPath id="clip1_1825_41513">
<rect width="93.1666" height="93.1666" fill="white" transform="translate(302.383 22.5342) rotate(13.31)"/>
</clipPath>
<clipPath id="clip2_1825_41513">
<rect width="80.6106" height="111.03" fill="white" transform="translate(171.245) rotate(8.36843)"/>
</clipPath>
</defs>
</svg>
