<svg width="430" height="92" viewBox="0 0 430 92" fill="none" xmlns="http://www.w3.org/2000/svg">
<g clip-path="url(#clip0_1559_26071)">
<rect width="430" height="189" fill="#FEDED4"/>
<path fill-rule="evenodd" clip-rule="evenodd" d="M264.864 -99C375.178 -99 412 31.7283 412 141.968C412 203.76 326.698 200.416 264.864 200.416C158.936 200.416 0 247.824 0 141.968C0 2.18197 124.984 -99 264.864 -99Z" fill="url(#paint0_linear_1559_26071)" fill-opacity="0.2"/>
<path fill-rule="evenodd" clip-rule="evenodd" d="M261.005 -65C347.222 -65 376 37.0524 376 123.11C376 171.348 309.332 168.738 261.005 168.738C178.217 168.738 54 205.746 54 123.11C54 13.9872 151.682 -65 261.005 -65Z" fill="url(#paint1_linear_1559_26071)"/>
</g>
<defs>
<linearGradient id="paint0_linear_1559_26071" x1="0" y1="56" x2="412" y2="56" gradientUnits="userSpaceOnUse">
<stop stop-color="#FF8008"/>
<stop offset="1" stop-color="#EC8C6F"/>
</linearGradient>
<linearGradient id="paint1_linear_1559_26071" x1="54" y1="56" x2="376" y2="56" gradientUnits="userSpaceOnUse">
<stop stop-color="#FF8008"/>
<stop offset="1" stop-color="#EC8C6F"/>
</linearGradient>
<clipPath id="clip0_1559_26071">
<rect width="430" height="92" fill="white"/>
</clipPath>
</defs>
</svg>
