<svg width="294" height="110" viewBox="0 0 294 110" fill="none" xmlns="http://www.w3.org/2000/svg">
<path d="M32.6066 88V60.6H23.2066V53.6H50.7566V60.6H41.3066V88H32.6066ZM54.7523 88V62.5H62.3523L62.5523 66.85H63.0023C63.469 65.6167 64.0523 64.65 64.7523 63.95C65.4857 63.25 66.369 62.7667 67.4023 62.5C68.4357 62.2333 69.6357 62.1 71.0023 62.1V69.45C68.9023 69.45 67.2523 69.7167 66.0523 70.25C64.8523 70.7833 64.0023 71.7 63.5023 73C63.0023 74.2667 62.7523 76.05 62.7523 78.35V88H54.7523ZM80.9719 88.4C79.3719 88.4 78.0219 88.15 76.9219 87.65C75.8219 87.15 74.9885 86.3333 74.4219 85.2C73.8885 84.0667 73.6219 82.5833 73.6219 80.75C73.6219 78.8167 73.8385 77.2833 74.2719 76.15C74.7385 74.9833 75.5552 74.15 76.7219 73.65C77.8885 73.15 79.5385 72.9 81.6719 72.9C81.9719 72.9 82.3885 72.9167 82.9219 72.95C83.4885 72.95 84.1219 72.9667 84.8219 73C85.5219 73 86.2219 73.0167 86.9219 73.05C87.6219 73.05 88.2552 73.0667 88.8219 73.1V72.15C88.8219 71.1833 88.7385 70.4333 88.5719 69.9C88.4385 69.3667 88.1552 68.9833 87.7219 68.75C87.3219 68.4833 86.7052 68.3333 85.8719 68.3C85.0385 68.2333 83.9385 68.2 82.5719 68.2C81.8052 68.2 80.9552 68.2167 80.0219 68.25C79.1219 68.2833 78.2219 68.3333 77.3219 68.4C76.4552 68.4333 75.7219 68.4833 75.1219 68.55V62.9C76.4885 62.6667 78.0219 62.4833 79.7219 62.35C81.4552 62.1833 83.2719 62.1 85.1719 62.1C87.3052 62.1 89.0719 62.2333 90.4719 62.5C91.9052 62.7667 93.0552 63.1833 93.9219 63.75C94.7885 64.2833 95.4219 64.9667 95.8219 65.8C96.2552 66.6333 96.5385 67.6167 96.6719 68.75C96.8052 69.8833 96.8719 71.1667 96.8719 72.6V88H89.1719L88.9719 85H88.5719C87.9385 86 87.2052 86.75 86.3719 87.25C85.5385 87.75 84.6552 88.0667 83.7219 88.2C82.7885 88.3333 81.8719 88.4 80.9719 88.4ZM84.7719 82.7C85.3719 82.7 85.8885 82.6667 86.3219 82.6C86.7885 82.5 87.1719 82.35 87.4719 82.15C87.8052 81.9167 88.0719 81.6333 88.2719 81.3C88.4385 80.9333 88.5719 80.4833 88.6719 79.95C88.7719 79.4167 88.8219 78.7833 88.8219 78.05V77.1H84.1719C83.3385 77.1 82.7052 77.1667 82.2719 77.3C81.8385 77.4 81.5385 77.6667 81.3719 78.1C81.2385 78.5 81.1719 79.1333 81.1719 80C81.1719 80.7333 81.2552 81.3 81.4219 81.7C81.5885 82.1 81.9219 82.3667 82.4219 82.5C82.9552 82.6333 83.7385 82.7 84.7719 82.7ZM107.854 88L100.154 62.5H108.354L113.104 80.85H113.604L118.204 62.5H126.304L118.654 88H107.854ZM141.506 88.4C139.106 88.4 137.123 88.25 135.556 87.95C133.989 87.65 132.739 87.1833 131.806 86.55C130.906 85.8833 130.223 85.0333 129.756 84C129.323 82.9667 129.039 81.7333 128.906 80.3C128.806 78.8667 128.756 77.2 128.756 75.3C128.756 73 128.856 71.0167 129.056 69.35C129.289 67.6833 129.789 66.3167 130.556 65.25C131.323 64.1833 132.506 63.4 134.106 62.9C135.739 62.3667 137.939 62.1 140.706 62.1C142.939 62.1 144.756 62.2667 146.156 62.6C147.556 62.9 148.656 63.3833 149.456 64.05C150.289 64.6833 150.873 65.5167 151.206 66.55C151.573 67.5833 151.806 68.8333 151.906 70.3C152.006 71.7333 152.056 73.4 152.056 75.3V77.25H136.706C136.706 78.3833 136.756 79.3 136.856 80C136.956 80.6667 137.223 81.1667 137.656 81.5C138.089 81.8333 138.756 82.0667 139.656 82.2C140.556 82.3 141.806 82.35 143.406 82.35C144.039 82.35 144.789 82.3333 145.656 82.3C146.523 82.2667 147.423 82.2167 148.356 82.15C149.323 82.0833 150.223 82.0167 151.056 81.95V87.55C150.323 87.7167 149.423 87.8667 148.356 88C147.323 88.1333 146.206 88.2333 145.006 88.3C143.806 88.3667 142.639 88.4 141.506 88.4ZM144.506 73.9V73.1C144.506 71.9 144.439 70.95 144.306 70.25C144.206 69.55 144.006 69.0333 143.706 68.7C143.439 68.3333 143.056 68.1 142.556 68C142.056 67.9 141.423 67.85 140.656 67.85C139.789 67.85 139.089 67.9167 138.556 68.05C138.056 68.15 137.673 68.3833 137.406 68.75C137.139 69.1167 136.956 69.65 136.856 70.35C136.756 71.05 136.706 71.9667 136.706 73.1H145.356L144.506 73.9ZM157.438 88V50.85H165.538V88H157.438ZM184.841 88V53.6H193.541V67.1H204.691V53.6H213.391V88H204.691V74.35H193.541V88H184.841ZM231.936 88.4C229.536 88.4 227.552 88.25 225.986 87.95C224.419 87.65 223.169 87.1833 222.236 86.55C221.336 85.8833 220.652 85.0333 220.186 84C219.752 82.9667 219.469 81.7333 219.336 80.3C219.236 78.8667 219.186 77.2 219.186 75.3C219.186 73 219.286 71.0167 219.486 69.35C219.719 67.6833 220.219 66.3167 220.986 65.25C221.752 64.1833 222.936 63.4 224.536 62.9C226.169 62.3667 228.369 62.1 231.136 62.1C233.369 62.1 235.186 62.2667 236.586 62.6C237.986 62.9 239.086 63.3833 239.886 64.05C240.719 64.6833 241.302 65.5167 241.636 66.55C242.002 67.5833 242.236 68.8333 242.336 70.3C242.436 71.7333 242.486 73.4 242.486 75.3V77.25H227.136C227.136 78.3833 227.186 79.3 227.286 80C227.386 80.6667 227.652 81.1667 228.086 81.5C228.519 81.8333 229.186 82.0667 230.086 82.2C230.986 82.3 232.236 82.35 233.836 82.35C234.469 82.35 235.219 82.3333 236.086 82.3C236.952 82.2667 237.852 82.2167 238.786 82.15C239.752 82.0833 240.652 82.0167 241.486 81.95V87.55C240.752 87.7167 239.852 87.8667 238.786 88C237.752 88.1333 236.636 88.2333 235.436 88.3C234.236 88.3667 233.069 88.4 231.936 88.4ZM234.936 73.9V73.1C234.936 71.9 234.869 70.95 234.736 70.25C234.636 69.55 234.436 69.0333 234.136 68.7C233.869 68.3333 233.486 68.1 232.986 68C232.486 67.9 231.852 67.85 231.086 67.85C230.219 67.85 229.519 67.9167 228.986 68.05C228.486 68.15 228.102 68.3833 227.836 68.75C227.569 69.1167 227.386 69.65 227.286 70.35C227.186 71.05 227.136 71.9667 227.136 73.1H235.786L234.936 73.9ZM247.868 88V62.5H255.468L255.668 66.85H256.118C256.584 65.6167 257.168 64.65 257.868 63.95C258.601 63.25 259.484 62.7667 260.518 62.5C261.551 62.2333 262.751 62.1 264.118 62.1V69.45C262.018 69.45 260.368 69.7167 259.168 70.25C257.968 70.7833 257.118 71.7 256.618 73C256.118 74.2667 255.868 76.05 255.868 78.35V88H247.868ZM279.331 88.4C277.065 88.4 275.181 88.2667 273.681 88C272.181 87.7333 270.998 87.3 270.131 86.7C269.265 86.1 268.631 85.3 268.231 84.3C267.831 83.3 267.565 82.05 267.431 80.55C267.331 79.05 267.281 77.2667 267.281 75.2C267.281 73.1333 267.331 71.3667 267.431 69.9C267.565 68.4 267.831 67.15 268.231 66.15C268.631 65.15 269.265 64.35 270.131 63.75C270.998 63.15 272.181 62.7333 273.681 62.5C275.181 62.2333 277.065 62.1 279.331 62.1C281.631 62.1 283.531 62.2333 285.031 62.5C286.531 62.7333 287.715 63.15 288.581 63.75C289.448 64.35 290.081 65.15 290.481 66.15C290.881 67.15 291.131 68.4 291.231 69.9C291.365 71.3667 291.431 73.1333 291.431 75.2C291.431 77.2667 291.365 79.05 291.231 80.55C291.131 82.05 290.881 83.3 290.481 84.3C290.081 85.3 289.448 86.1 288.581 86.7C287.715 87.3 286.531 87.7333 285.031 88C283.531 88.2667 281.631 88.4 279.331 88.4ZM279.331 82.3C280.331 82.3 281.115 82.2333 281.681 82.1C282.248 81.9667 282.648 81.6667 282.881 81.2C283.115 80.7333 283.248 80.0167 283.281 79.05C283.348 78.0833 283.381 76.8 283.381 75.2C283.381 73.6 283.348 72.3333 283.281 71.4C283.248 70.4667 283.115 69.7667 282.881 69.3C282.648 68.8333 282.248 68.5333 281.681 68.4C281.115 68.2667 280.331 68.2 279.331 68.2C278.331 68.2 277.548 68.2667 276.981 68.4C276.448 68.5333 276.065 68.8333 275.831 69.3C275.598 69.7667 275.448 70.4667 275.381 71.4C275.348 72.3333 275.331 73.6 275.331 75.2C275.331 76.8 275.348 78.0833 275.381 79.05C275.448 80.0167 275.598 80.7333 275.831 81.2C276.065 81.6667 276.448 81.9667 276.981 82.1C277.548 82.2333 278.331 82.3 279.331 82.3Z" fill="white"/>
<path d="M52.1051 7.31734L19.8612 2L13.577 4.51131L27.2803 18.3781M13.5247 30.3722L5.6942 22.4483C5.6942 22.4483 1.83316 30.8591 2.00561 36.111C2.17805 41.363 8.2627 45.7513 14.3853 43.3036C20.5101 40.8561 91 10.2773 91 10.2773L72.1016 5.22416L13.5247 30.3722Z" stroke="white" stroke-width="4" stroke-linecap="round" stroke-linejoin="round"/>
</svg>
